<svg width="18" height="18" viewBox="0 0 18 18" fill="none" xmlns="http://www.w3.org/2000/svg">
<path d="M17.1 0H0.9C0.661305 0 0.432387 0.0948211 0.263604 0.263604C0.0948211 0.432387 0 0.661305 0 0.9V17.1C0 17.3387 0.0948211 17.5676 0.263604 17.7364C0.432387 17.9052 0.661305 18 0.9 18H17.1C17.3387 18 17.5676 17.9052 17.7364 17.7364C17.9052 17.5676 18 17.3387 18 17.1V0.9C18 0.661305 17.9052 0.432387 17.7364 0.263604C17.5676 0.0948211 17.3387 0 17.1 0ZM14.1471 7.8525C14.049 7.86209 13.9505 7.86719 13.8519 7.8678C13.3179 7.86849 12.7922 7.73613 12.3222 7.48268C11.8522 7.22922 11.4528 6.86265 11.16 6.4161V11.3598C11.1602 12.0827 10.946 12.7895 10.5444 13.3907C10.1429 13.9919 9.57207 14.4605 8.90419 14.7372C8.2363 15.014 7.50135 15.0864 6.79228 14.9454C6.08322 14.8044 5.4319 14.4563 4.9207 13.9451C4.40949 13.4339 4.06138 12.7826 3.92038 12.0735C3.77939 11.3644 3.85184 10.6295 4.12858 9.96161C4.40533 9.29373 4.87392 8.72292 5.47511 8.32139C6.07629 7.91985 6.78305 7.70562 7.506 7.7058C7.5825 7.7058 7.6563 7.713 7.7319 7.7175V9.5175C7.4801 9.487 7.22472 9.50831 6.98146 9.58013C6.73819 9.65195 6.51219 9.77276 6.31732 9.93513C6.12246 10.0975 5.96287 10.298 5.84834 10.5243C5.73381 10.7506 5.66677 10.998 5.65135 11.2512C5.63592 11.5043 5.67243 11.758 5.75863 11.9965C5.84483 12.2351 5.9789 12.4535 6.1526 12.6383C6.32631 12.8231 6.53597 12.9705 6.76871 13.0713C7.00145 13.1721 7.25236 13.2243 7.506 13.2246C8.00655 13.2337 8.49066 13.0459 8.85421 12.7017C9.21775 12.3575 9.43169 11.8844 9.45 11.3841L9.468 2.9862H11.1906C11.2693 3.73451 11.6085 4.43135 12.1489 4.95486C12.6894 5.47837 13.3967 5.79522 14.1471 5.85V7.8525Z" fill="#F9F9F9"/>
</svg>
