<svg width="463" height="138" viewBox="0 0 463 138" fill="none" xmlns="http://www.w3.org/2000/svg">
<rect opacity="0.6" width="95.3027" height="300.156" transform="matrix(1 0 0 -1 -13 300.156)" fill="url(#paint0_linear_1_229)"/>
<rect opacity="0.6" width="95.3027" height="300.156" transform="matrix(1 0 0 -1 82 336.605)" fill="url(#paint1_linear_1_229)"/>
<rect opacity="0.6" width="95.3027" height="300.156" transform="matrix(1 0 0 -1 177 355.902)" fill="url(#paint2_linear_1_229)"/>
<rect opacity="0.6" width="95.3027" height="300.156" transform="matrix(1 0 0 -1 272 374.129)" fill="url(#paint3_linear_1_229)"/>
<rect opacity="0.6" width="95.3027" height="300.156" transform="matrix(1 0 0 -1 367 407.363)" fill="url(#paint4_linear_1_229)"/>
<defs>
<linearGradient id="paint0_linear_1_229" x1="47.6514" y1="300.156" x2="47.6514" y2="0" gradientUnits="userSpaceOnUse">
<stop stop-color="#DFE00D" stop-opacity="0"/>
<stop offset="0.9" stop-color="#25B8B6"/>
</linearGradient>
<linearGradient id="paint1_linear_1_229" x1="47.6514" y1="300.156" x2="47.6514" y2="0" gradientUnits="userSpaceOnUse">
<stop stop-color="#DFE00D" stop-opacity="0"/>
<stop offset="0.9" stop-color="#25B8B6"/>
</linearGradient>
<linearGradient id="paint2_linear_1_229" x1="47.6514" y1="300.156" x2="47.6514" y2="0" gradientUnits="userSpaceOnUse">
<stop stop-color="#DFE00D" stop-opacity="0"/>
<stop offset="0.9" stop-color="#25B8B6"/>
</linearGradient>
<linearGradient id="paint3_linear_1_229" x1="47.6514" y1="300.156" x2="47.6514" y2="0" gradientUnits="userSpaceOnUse">
<stop stop-color="#DFE00D" stop-opacity="0"/>
<stop offset="0.9" stop-color="#25B8B6"/>
</linearGradient>
<linearGradient id="paint4_linear_1_229" x1="47.6514" y1="300.156" x2="47.6514" y2="0" gradientUnits="userSpaceOnUse">
<stop stop-color="#DFE00D" stop-opacity="0"/>
<stop offset="0.9" stop-color="#25B8B6"/>
</linearGradient>
</defs>
</svg>
