<svg width="1440" height="552" viewBox="0 0 1440 552" fill="none" xmlns="http://www.w3.org/2000/svg">
<g opacity="0.6">
<rect width="95.8304" height="302.257" transform="matrix(1 0 0 -1 3.07422 575.102)" fill="url(#paint0_linear_1_110)"/>
<rect width="95.8304" height="241.687" transform="matrix(1 0 0 -1 194.735 575.102)" fill="url(#paint1_linear_1_110)"/>
<rect width="95.8304" height="271.385" transform="matrix(1 0 0 -1 98.9053 575.102)" fill="url(#paint2_linear_1_110)"/>
<rect width="95.8304" height="352.491" transform="matrix(1 0 0 -1 -92.7559 575.102)" fill="url(#paint3_linear_1_110)"/>
<rect width="95.8304" height="216.084" transform="matrix(1 0 0 -1 290.566 575.102)" fill="url(#paint4_linear_1_110)"/>
<rect width="95.8304" height="228.832" transform="matrix(1 0 0 -1 386.396 575.102)" fill="url(#paint5_linear_1_110)"/>
<rect width="95.8304" height="359.303" transform="matrix(1 0 0 -1 769.718 575.102)" fill="url(#paint6_linear_1_110)"/>
<rect width="95.8304" height="288.268" transform="matrix(1 0 0 -1 578.058 575.102)" fill="url(#paint7_linear_1_110)"/>
<rect width="95.8304" height="330.354" transform="matrix(1 0 0 -1 961.379 575.102)" fill="url(#paint8_linear_1_110)"/>
<rect width="95.8304" height="257.064" transform="matrix(1 0 0 -1 482.227 575.102)" fill="url(#paint9_linear_1_110)"/>
<rect width="95.8304" height="388.251" transform="matrix(1 0 0 -1 865.548 575.102)" fill="url(#paint10_linear_1_110)"/>
<rect width="95.8304" height="320.959" transform="matrix(1 0 0 -1 673.887 575.102)" fill="url(#paint11_linear_1_110)"/>
<rect width="95.8304" height="300.156" transform="matrix(1 0 0 -1 1057.21 575.102)" fill="url(#paint12_linear_1_110)"/>
<rect width="95.8304" height="300.156" transform="matrix(1 0 0 -1 1153.04 604.688)" fill="url(#paint13_linear_1_110)"/>
<rect width="95.8304" height="300.156" transform="matrix(1 0 0 -1 1248.6 632.99)" fill="url(#paint14_linear_1_110)"/>
<rect width="95.8304" height="300.156" transform="matrix(1 0 0 -1 1344.17 654.5)" fill="url(#paint15_linear_1_110)"/>
</g>
<defs>
<linearGradient id="paint0_linear_1_110" x1="47.9152" y1="302.257" x2="47.9152" y2="0" gradientUnits="userSpaceOnUse">
<stop stop-color="#DFE00D" stop-opacity="0"/>
<stop offset="0.9" stop-color="#25B8B6"/>
</linearGradient>
<linearGradient id="paint1_linear_1_110" x1="47.9152" y1="241.687" x2="47.9152" y2="0" gradientUnits="userSpaceOnUse">
<stop stop-color="#DFE00D" stop-opacity="0"/>
<stop offset="0.9" stop-color="#25B8B6"/>
</linearGradient>
<linearGradient id="paint2_linear_1_110" x1="47.9152" y1="271.385" x2="47.9152" y2="0" gradientUnits="userSpaceOnUse">
<stop stop-color="#DFE00D" stop-opacity="0"/>
<stop offset="0.9" stop-color="#25B8B6"/>
</linearGradient>
<linearGradient id="paint3_linear_1_110" x1="47.9152" y1="352.491" x2="47.9152" y2="0" gradientUnits="userSpaceOnUse">
<stop stop-color="#DFE00D" stop-opacity="0"/>
<stop offset="0.9" stop-color="#25B8B6"/>
</linearGradient>
<linearGradient id="paint4_linear_1_110" x1="47.9152" y1="216.084" x2="47.9152" y2="0" gradientUnits="userSpaceOnUse">
<stop stop-color="#DFE00D" stop-opacity="0"/>
<stop offset="0.9" stop-color="#25B8B6"/>
</linearGradient>
<linearGradient id="paint5_linear_1_110" x1="47.9152" y1="228.832" x2="47.9152" y2="0" gradientUnits="userSpaceOnUse">
<stop stop-color="#DFE00D" stop-opacity="0"/>
<stop offset="0.9" stop-color="#25B8B6"/>
</linearGradient>
<linearGradient id="paint6_linear_1_110" x1="47.9152" y1="359.303" x2="47.9152" y2="0" gradientUnits="userSpaceOnUse">
<stop stop-color="#DFE00D" stop-opacity="0"/>
<stop offset="0.9" stop-color="#25B8B6"/>
</linearGradient>
<linearGradient id="paint7_linear_1_110" x1="47.9152" y1="288.268" x2="47.9152" y2="0" gradientUnits="userSpaceOnUse">
<stop stop-color="#DFE00D" stop-opacity="0"/>
<stop offset="0.9" stop-color="#25B8B6"/>
</linearGradient>
<linearGradient id="paint8_linear_1_110" x1="47.9152" y1="330.354" x2="47.9152" y2="0" gradientUnits="userSpaceOnUse">
<stop stop-color="#DFE00D" stop-opacity="0"/>
<stop offset="0.9" stop-color="#25B8B6"/>
</linearGradient>
<linearGradient id="paint9_linear_1_110" x1="47.9152" y1="257.064" x2="47.9152" y2="0" gradientUnits="userSpaceOnUse">
<stop stop-color="#DFE00D" stop-opacity="0"/>
<stop offset="0.9" stop-color="#25B8B6"/>
</linearGradient>
<linearGradient id="paint10_linear_1_110" x1="47.9152" y1="388.251" x2="47.9152" y2="0" gradientUnits="userSpaceOnUse">
<stop stop-color="#DFE00D" stop-opacity="0"/>
<stop offset="0.9" stop-color="#25B8B6"/>
</linearGradient>
<linearGradient id="paint11_linear_1_110" x1="47.9152" y1="320.959" x2="47.9152" y2="0" gradientUnits="userSpaceOnUse">
<stop stop-color="#DFE00D" stop-opacity="0"/>
<stop offset="0.9" stop-color="#25B8B6"/>
</linearGradient>
<linearGradient id="paint12_linear_1_110" x1="47.9152" y1="300.156" x2="47.9152" y2="0" gradientUnits="userSpaceOnUse">
<stop stop-color="#DFE00D" stop-opacity="0"/>
<stop offset="0.9" stop-color="#25B8B6"/>
</linearGradient>
<linearGradient id="paint13_linear_1_110" x1="47.9152" y1="300.156" x2="47.9152" y2="0" gradientUnits="userSpaceOnUse">
<stop stop-color="#DFE00D" stop-opacity="0"/>
<stop offset="0.9" stop-color="#25B8B6"/>
</linearGradient>
<linearGradient id="paint14_linear_1_110" x1="47.9152" y1="300.156" x2="47.9152" y2="0" gradientUnits="userSpaceOnUse">
<stop stop-color="#DFE00D" stop-opacity="0"/>
<stop offset="0.9" stop-color="#25B8B6"/>
</linearGradient>
<linearGradient id="paint15_linear_1_110" x1="47.9152" y1="300.156" x2="47.9152" y2="0" gradientUnits="userSpaceOnUse">
<stop stop-color="#DFE00D" stop-opacity="0"/>
<stop offset="0.9" stop-color="#25B8B6"/>
</linearGradient>
</defs>
</svg>
