<svg width="1440" height="460" viewBox="0 0 1440 460" fill="none" xmlns="http://www.w3.org/2000/svg">
<g opacity="0.6">
<rect x="1079.59" y="459.029" width="73" height="459" transform="rotate(180 1079.59 459.029)" fill="url(#paint0_linear_260_4)"/>
<rect x="775.398" y="459.15" width="76.9005" height="227.497" transform="rotate(180 775.398 459.15)" fill="url(#paint1_linear_260_4)"/>
<rect x="929.199" y="459.15" width="76.9005" height="344.771" transform="rotate(180 929.199 459.15)" fill="url(#paint2_linear_260_4)"/>
<rect x="621.598" y="459.15" width="76.9005" height="181.908" transform="rotate(180 621.598 459.15)" fill="url(#paint3_linear_260_4)"/>
<rect x="1006.53" y="459.15" width="77.5396" height="360.431" transform="rotate(180 1006.53 459.15)" fill="url(#paint4_linear_260_4)"/>
<rect x="698.496" y="459.15" width="76.9005" height="204.261" transform="rotate(180 698.496 459.15)" fill="url(#paint5_linear_260_4)"/>
<rect x="852.299" y="459.15" width="76.9005" height="265.307" transform="rotate(180 852.299 459.15)" fill="url(#paint6_linear_260_4)"/>
<rect x="544.697" y="459.15" width="76.9005" height="162.638" transform="rotate(180 544.697 459.15)" fill="url(#paint7_linear_260_4)"/>
<rect x="467.797" y="459.15" width="76.9005" height="172.233" transform="rotate(180 467.797 459.15)" fill="url(#paint8_linear_260_4)"/>
<rect x="160.195" y="459.15" width="76.9005" height="270.434" transform="rotate(180 160.195 459.15)" fill="url(#paint9_linear_260_4)"/>
<rect x="313.994" y="459.15" width="76.9005" height="216.969" transform="rotate(180 313.994 459.15)" fill="url(#paint10_linear_260_4)"/>
<rect x="6.39258" y="459.15" width="76.9005" height="248.645" transform="rotate(180 6.39258 459.15)" fill="url(#paint11_linear_260_4)"/>
<rect x="390.895" y="459.15" width="76.9005" height="193.482" transform="rotate(180 390.895 459.15)" fill="url(#paint12_linear_260_4)"/>
<rect x="83.293" y="459.15" width="76.9005" height="292.222" transform="rotate(180 83.293 459.15)" fill="url(#paint13_linear_260_4)"/>
<rect x="237.094" y="459.15" width="76.9005" height="241.573" transform="rotate(180 237.094 459.15)" fill="url(#paint14_linear_260_4)"/>
</g>
<g opacity="0.6">
<rect width="73" height="432" transform="matrix(1 0 0 -1 1079.59 459.029)" fill="url(#paint15_linear_260_4)"/>
<rect width="76.9005" height="214.344" transform="matrix(1 0 0 -1 1383.79 459.15)" fill="url(#paint16_linear_260_4)"/>
<rect width="76.9005" height="324.837" transform="matrix(1 0 0 -1 1229.98 459.15)" fill="url(#paint17_linear_260_4)"/>
<rect width="77.5396" height="339.592" transform="matrix(1 0 0 -1 1152.66 459.15)" fill="url(#paint18_linear_260_4)"/>
<rect width="76.9005" height="249.968" transform="matrix(1 0 0 -1 1306.88 459.15)" fill="url(#paint19_linear_260_4)"/>
</g>
<defs>
<linearGradient id="paint0_linear_260_4" x1="1116.09" y1="918.029" x2="1116.09" y2="459.029" gradientUnits="userSpaceOnUse">
<stop stop-color="#DFE00D" stop-opacity="0"/>
<stop offset="0.9" stop-color="#25B8B6"/>
</linearGradient>
<linearGradient id="paint1_linear_260_4" x1="813.849" y1="686.648" x2="813.849" y2="459.15" gradientUnits="userSpaceOnUse">
<stop stop-color="#DFE00D" stop-opacity="0"/>
<stop offset="0.9" stop-color="#25B8B6"/>
</linearGradient>
<linearGradient id="paint2_linear_260_4" x1="967.649" y1="803.921" x2="967.649" y2="459.15" gradientUnits="userSpaceOnUse">
<stop stop-color="#DFE00D" stop-opacity="0"/>
<stop offset="0.9" stop-color="#25B8B6"/>
</linearGradient>
<linearGradient id="paint3_linear_260_4" x1="660.048" y1="641.059" x2="660.048" y2="459.15" gradientUnits="userSpaceOnUse">
<stop stop-color="#DFE00D" stop-opacity="0"/>
<stop offset="0.9" stop-color="#25B8B6"/>
</linearGradient>
<linearGradient id="paint4_linear_260_4" x1="1045.3" y1="819.582" x2="1045.3" y2="459.15" gradientUnits="userSpaceOnUse">
<stop stop-color="#DFE00D" stop-opacity="0"/>
<stop offset="0.9" stop-color="#25B8B6"/>
</linearGradient>
<linearGradient id="paint5_linear_260_4" x1="736.946" y1="663.412" x2="736.946" y2="459.15" gradientUnits="userSpaceOnUse">
<stop stop-color="#DFE00D" stop-opacity="0"/>
<stop offset="0.9" stop-color="#25B8B6"/>
</linearGradient>
<linearGradient id="paint6_linear_260_4" x1="890.749" y1="724.457" x2="890.749" y2="459.15" gradientUnits="userSpaceOnUse">
<stop stop-color="#DFE00D" stop-opacity="0"/>
<stop offset="0.9" stop-color="#25B8B6"/>
</linearGradient>
<linearGradient id="paint7_linear_260_4" x1="583.148" y1="621.789" x2="583.148" y2="459.15" gradientUnits="userSpaceOnUse">
<stop stop-color="#DFE00D" stop-opacity="0"/>
<stop offset="0.9" stop-color="#25B8B6"/>
</linearGradient>
<linearGradient id="paint8_linear_260_4" x1="506.247" y1="631.383" x2="506.247" y2="459.15" gradientUnits="userSpaceOnUse">
<stop stop-color="#DFE00D" stop-opacity="0"/>
<stop offset="0.9" stop-color="#25B8B6"/>
</linearGradient>
<linearGradient id="paint9_linear_260_4" x1="198.646" y1="729.584" x2="198.646" y2="459.15" gradientUnits="userSpaceOnUse">
<stop stop-color="#DFE00D" stop-opacity="0"/>
<stop offset="0.9" stop-color="#25B8B6"/>
</linearGradient>
<linearGradient id="paint10_linear_260_4" x1="352.444" y1="676.119" x2="352.444" y2="459.15" gradientUnits="userSpaceOnUse">
<stop stop-color="#DFE00D" stop-opacity="0"/>
<stop offset="0.9" stop-color="#25B8B6"/>
</linearGradient>
<linearGradient id="paint11_linear_260_4" x1="44.8428" y1="707.795" x2="44.8428" y2="459.15" gradientUnits="userSpaceOnUse">
<stop stop-color="#DFE00D" stop-opacity="0"/>
<stop offset="0.9" stop-color="#25B8B6"/>
</linearGradient>
<linearGradient id="paint12_linear_260_4" x1="429.345" y1="652.633" x2="429.345" y2="459.15" gradientUnits="userSpaceOnUse">
<stop stop-color="#DFE00D" stop-opacity="0"/>
<stop offset="0.9" stop-color="#25B8B6"/>
</linearGradient>
<linearGradient id="paint13_linear_260_4" x1="121.743" y1="751.372" x2="121.743" y2="459.15" gradientUnits="userSpaceOnUse">
<stop stop-color="#DFE00D" stop-opacity="0"/>
<stop offset="0.9" stop-color="#25B8B6"/>
</linearGradient>
<linearGradient id="paint14_linear_260_4" x1="275.544" y1="700.724" x2="275.544" y2="459.15" gradientUnits="userSpaceOnUse">
<stop stop-color="#DFE00D" stop-opacity="0"/>
<stop offset="0.9" stop-color="#25B8B6"/>
</linearGradient>
<linearGradient id="paint15_linear_260_4" x1="36.5" y1="432" x2="36.5" y2="0" gradientUnits="userSpaceOnUse">
<stop stop-color="#DFE00D" stop-opacity="0"/>
<stop offset="0.9" stop-color="#25B8B6"/>
</linearGradient>
<linearGradient id="paint16_linear_260_4" x1="38.4503" y1="214.344" x2="38.4503" y2="0" gradientUnits="userSpaceOnUse">
<stop stop-color="#DFE00D" stop-opacity="0"/>
<stop offset="0.9" stop-color="#25B8B6"/>
</linearGradient>
<linearGradient id="paint17_linear_260_4" x1="38.4503" y1="324.837" x2="38.4503" y2="0" gradientUnits="userSpaceOnUse">
<stop stop-color="#DFE00D" stop-opacity="0"/>
<stop offset="0.9" stop-color="#25B8B6"/>
</linearGradient>
<linearGradient id="paint18_linear_260_4" x1="38.7698" y1="339.592" x2="38.7698" y2="0" gradientUnits="userSpaceOnUse">
<stop stop-color="#DFE00D" stop-opacity="0"/>
<stop offset="0.9" stop-color="#25B8B6"/>
</linearGradient>
<linearGradient id="paint19_linear_260_4" x1="38.4503" y1="249.968" x2="38.4503" y2="0" gradientUnits="userSpaceOnUse">
<stop stop-color="#DFE00D" stop-opacity="0"/>
<stop offset="0.9" stop-color="#25B8B6"/>
</linearGradient>
</defs>
</svg>
