<svg width="1440" height="452" viewBox="0 0 1440 452" fill="none" xmlns="http://www.w3.org/2000/svg">
<g opacity="0.6" filter="url(#filter0_n_1_1215)">
<rect width="91.9579" height="452" transform="matrix(1 0 0 -1 0 452)" fill="url(#paint0_linear_1_1215)"/>
<rect width="96" height="271.433" transform="matrix(1 0 0 -1 381 452)" fill="url(#paint1_linear_1_1215)"/>
<rect width="97" height="392.941" transform="matrix(1 0 0 -1 188 452)" fill="url(#paint2_linear_1_1215)"/>
<rect width="96" height="251.835" transform="matrix(1 0 0 -1 574 452)" fill="url(#paint3_linear_1_1215)"/>
<rect width="97" height="366.483" transform="matrix(1 0 0 -1 92 452)" fill="url(#paint4_linear_1_1215)"/>
<rect width="97" height="233.217" transform="matrix(1 0 0 -1 477 452)" fill="url(#paint5_linear_1_1215)"/>
<rect width="96" height="410.579" transform="matrix(1 0 0 -1 285 452)" fill="url(#paint6_linear_1_1215)"/>
<rect width="96" height="319.448" transform="matrix(1 0 0 -1 670 452)" fill="url(#paint7_linear_1_1215)"/>
<rect width="97" height="228.317" transform="matrix(1 0 0 -1 766 452)" fill="url(#paint8_linear_1_1215)"/>
<rect width="97.0105" height="282.5" transform="matrix(1 0 0 -1 1150.99 452)" fill="url(#paint9_linear_1_1215)"/>
<rect width="96" height="226.843" transform="matrix(1 0 0 -1 958.989 452)" fill="url(#paint10_linear_1_1215)"/>
<rect width="96" height="311.609" transform="matrix(1 0 0 -1 1344 452)" fill="url(#paint11_linear_1_1215)"/>
<rect width="96" height="202.388" transform="matrix(1 0 0 -1 862.989 452)" fill="url(#paint12_linear_1_1215)"/>
<rect width="96" height="305.269" transform="matrix(1 0 0 -1 1248 452)" fill="url(#paint13_linear_1_1215)"/>
<rect width="96" height="252.142" transform="matrix(1 0 0 -1 1054.99 452)" fill="url(#paint14_linear_1_1215)"/>
</g>
<defs>
<filter id="filter0_n_1_1215" x="0" y="0" width="1440" height="452" filterUnits="userSpaceOnUse" color-interpolation-filters="sRGB">
<feFlood flood-opacity="0" result="BackgroundImageFix"/>
<feBlend mode="normal" in="SourceGraphic" in2="BackgroundImageFix" result="shape"/>
<feTurbulence type="fractalNoise" baseFrequency="1.9944906234741211 1.9944906234741211" stitchTiles="stitch" numOctaves="3" result="noise" seed="5367" />
<feColorMatrix in="noise" type="luminanceToAlpha" result="alphaNoise" />
<feComponentTransfer in="alphaNoise" result="coloredNoise1">
<feFuncA type="discrete" tableValues="0 0 0 0 0 0 0 0 0 0 0 0 0 1 1 1 1 1 1 1 1 1 1 1 1 1 1 1 1 1 1 1 1 1 1 1 0 0 0 0 0 0 0 0 0 0 0 0 0 0 0 0 0 0 0 0 0 0 0 0 0 0 0 0 0 0 0 0 0 0 0 0 0 0 0 0 0 0 0 0 0 0 0 0 0 0 0 0 0 0 0 0 0 0 0 0 0 0 0 0 "/>
</feComponentTransfer>
<feComposite operator="in" in2="shape" in="coloredNoise1" result="noise1Clipped" />
<feFlood flood-color="rgba(0, 0, 0, 0.1)" result="color1Flood" />
<feComposite operator="in" in2="noise1Clipped" in="color1Flood" result="color1" />
<feMerge result="effect1_noise_1_1215">
<feMergeNode in="shape" />
<feMergeNode in="color1" />
</feMerge>
</filter>
<linearGradient id="paint0_linear_1_1215" x1="45.9789" y1="452" x2="45.9789" y2="0" gradientUnits="userSpaceOnUse">
<stop stop-color="#DFE00D" stop-opacity="0"/>
<stop offset="0.9" stop-color="#25B8B6"/>
</linearGradient>
<linearGradient id="paint1_linear_1_1215" x1="48" y1="271.433" x2="48" y2="0" gradientUnits="userSpaceOnUse">
<stop stop-color="#DFE00D" stop-opacity="0"/>
<stop offset="0.9" stop-color="#25B8B6"/>
</linearGradient>
<linearGradient id="paint2_linear_1_1215" x1="48.5" y1="392.941" x2="48.5" y2="0" gradientUnits="userSpaceOnUse">
<stop stop-color="#DFE00D" stop-opacity="0"/>
<stop offset="0.9" stop-color="#25B8B6"/>
</linearGradient>
<linearGradient id="paint3_linear_1_1215" x1="48" y1="251.835" x2="48" y2="0" gradientUnits="userSpaceOnUse">
<stop stop-color="#DFE00D" stop-opacity="0"/>
<stop offset="0.9" stop-color="#25B8B6"/>
</linearGradient>
<linearGradient id="paint4_linear_1_1215" x1="48.5" y1="366.483" x2="48.5" y2="0" gradientUnits="userSpaceOnUse">
<stop stop-color="#DFE00D" stop-opacity="0"/>
<stop offset="0.9" stop-color="#25B8B6"/>
</linearGradient>
<linearGradient id="paint5_linear_1_1215" x1="48.5" y1="233.217" x2="48.5" y2="0" gradientUnits="userSpaceOnUse">
<stop stop-color="#DFE00D" stop-opacity="0"/>
<stop offset="0.9" stop-color="#25B8B6"/>
</linearGradient>
<linearGradient id="paint6_linear_1_1215" x1="48" y1="410.579" x2="48" y2="0" gradientUnits="userSpaceOnUse">
<stop stop-color="#DFE00D" stop-opacity="0"/>
<stop offset="0.9" stop-color="#25B8B6"/>
</linearGradient>
<linearGradient id="paint7_linear_1_1215" x1="48" y1="319.448" x2="48" y2="0" gradientUnits="userSpaceOnUse">
<stop stop-color="#DFE00D" stop-opacity="0"/>
<stop offset="0.9" stop-color="#25B8B6"/>
</linearGradient>
<linearGradient id="paint8_linear_1_1215" x1="48.5" y1="228.317" x2="48.5" y2="0" gradientUnits="userSpaceOnUse">
<stop stop-color="#DFE00D" stop-opacity="0"/>
<stop offset="0.9" stop-color="#25B8B6"/>
</linearGradient>
<linearGradient id="paint9_linear_1_1215" x1="48.5053" y1="282.5" x2="48.5053" y2="0" gradientUnits="userSpaceOnUse">
<stop stop-color="#DFE00D" stop-opacity="0"/>
<stop offset="0.9" stop-color="#25B8B6"/>
</linearGradient>
<linearGradient id="paint10_linear_1_1215" x1="48" y1="226.843" x2="48" y2="0" gradientUnits="userSpaceOnUse">
<stop stop-color="#DFE00D" stop-opacity="0"/>
<stop offset="0.9" stop-color="#25B8B6"/>
</linearGradient>
<linearGradient id="paint11_linear_1_1215" x1="48" y1="311.609" x2="48" y2="0" gradientUnits="userSpaceOnUse">
<stop stop-color="#DFE00D" stop-opacity="0"/>
<stop offset="0.9" stop-color="#25B8B6"/>
</linearGradient>
<linearGradient id="paint12_linear_1_1215" x1="48" y1="202.388" x2="48" y2="0" gradientUnits="userSpaceOnUse">
<stop stop-color="#DFE00D" stop-opacity="0"/>
<stop offset="0.9" stop-color="#25B8B6"/>
</linearGradient>
<linearGradient id="paint13_linear_1_1215" x1="48" y1="305.269" x2="48" y2="0" gradientUnits="userSpaceOnUse">
<stop stop-color="#DFE00D" stop-opacity="0"/>
<stop offset="0.9" stop-color="#25B8B6"/>
</linearGradient>
<linearGradient id="paint14_linear_1_1215" x1="48" y1="252.142" x2="48" y2="0" gradientUnits="userSpaceOnUse">
<stop stop-color="#DFE00D" stop-opacity="0"/>
<stop offset="0.9" stop-color="#25B8B6"/>
</linearGradient>
</defs>
</svg>
