<svg width="19" height="18" viewBox="0 0 19 18" fill="none" xmlns="http://www.w3.org/2000/svg">
<path d="M9.5 6.768C9.05855 6.768 8.62702 6.8989 8.25997 7.14416C7.89292 7.38942 7.60684 7.73801 7.4379 8.14585C7.26897 8.5537 7.22477 9.00248 7.31089 9.43544C7.39701 9.86841 7.60959 10.2661 7.92174 10.5783C8.23389 10.8904 8.63159 11.103 9.06456 11.1891C9.49753 11.2752 9.94631 11.231 10.3541 11.0621C10.762 10.8932 11.1106 10.6071 11.3558 10.24C11.6011 9.87298 11.732 9.44145 11.732 9C11.732 8.70689 11.6743 8.41665 11.5621 8.14585C11.4499 7.87505 11.2855 7.629 11.0783 7.42174C10.871 7.21448 10.6249 7.05007 10.3541 6.9379C10.0834 6.82573 9.79311 6.768 9.5 6.768ZM18.437 4.563C18.4323 3.86798 18.3043 3.17931 18.059 2.529C17.8784 2.05313 17.5989 1.62098 17.2389 1.26107C16.879 0.901149 16.4469 0.621646 15.971 0.441C15.3207 0.195717 14.632 0.0677348 13.937 0.0629999C12.776 -6.2528e-08 12.434 0 9.5 0C6.566 0 6.224 -6.2528e-08 5.063 0.0629999C4.36798 0.0677348 3.67931 0.195717 3.029 0.441C2.55313 0.621646 2.12098 0.901149 1.76107 1.26107C1.40115 1.62098 1.12165 2.05313 0.941 2.529C0.695717 3.17931 0.567735 3.86798 0.563 4.563C0.5 5.724 0.5 6.066 0.5 9C0.5 11.934 0.5 12.276 0.563 13.437C0.572687 14.1345 0.700497 14.8252 0.941 15.48C1.12085 15.9537 1.40012 16.3833 1.76 16.74C2.11837 17.1021 2.55145 17.3816 3.029 17.559C3.67931 17.8043 4.36798 17.9323 5.063 17.937C6.224 18 6.566 18 9.5 18C12.434 18 12.776 18 13.937 17.937C14.632 17.9323 15.3207 17.8043 15.971 17.559C16.4486 17.3816 16.8816 17.1021 17.24 16.74C17.5999 16.3833 17.8792 15.9537 18.059 15.48C18.304 14.8265 18.432 14.1349 18.437 13.437C18.5 12.276 18.5 11.934 18.5 9C18.5 6.066 18.5 5.724 18.437 4.563ZM16.151 11.763C16.1221 12.3184 16.0036 12.8655 15.8 13.383C15.6253 13.8147 15.3655 14.2069 15.0362 14.5362C14.7069 14.8655 14.3147 15.1253 13.883 15.3C13.3606 15.4922 12.8104 15.5986 12.254 15.615C11.543 15.615 11.354 15.615 9.5 15.615C7.646 15.615 7.457 15.615 6.746 15.615C6.18956 15.5986 5.63944 15.4922 5.117 15.3C4.67069 15.1341 4.26765 14.8696 3.938 14.526C3.6119 14.2031 3.36006 13.8131 3.2 13.383C3.007 12.8611 2.90355 12.3104 2.894 11.754C2.894 11.043 2.894 10.854 2.894 9C2.894 7.146 2.894 6.957 2.894 6.246C2.90355 5.68964 3.007 5.1389 3.2 4.617C3.36585 4.17069 3.63045 3.76765 3.974 3.438C4.2983 3.11366 4.68794 2.86208 5.117 2.7C5.63944 2.50777 6.18956 2.40139 6.746 2.385C7.457 2.385 7.646 2.385 9.5 2.385C11.354 2.385 11.543 2.385 12.254 2.385C12.8104 2.40139 13.3606 2.50777 13.883 2.7C14.3293 2.86585 14.7324 3.13045 15.062 3.474C15.3881 3.79687 15.6399 4.18692 15.8 4.617C15.9922 5.13944 16.0986 5.68956 16.115 6.246C16.115 6.957 16.115 7.146 16.115 9C16.115 10.854 16.178 11.043 16.151 11.754V11.763ZM14.711 5.067C14.6038 4.77629 14.4349 4.51228 14.2158 4.29319C13.9967 4.07411 13.7327 3.90516 13.442 3.798C13.0428 3.65963 12.6224 3.59261 12.2 3.6C11.498 3.6 11.3 3.6 9.5 3.6C7.7 3.6 7.502 3.6 6.8 3.6C6.37544 3.60415 5.95496 3.68337 5.558 3.834C5.27174 3.93629 5.01052 4.09834 4.79173 4.30938C4.57293 4.52042 4.40156 4.77561 4.289 5.058C4.1583 5.45883 4.09445 5.87844 4.1 6.3C4.1 7.002 4.1 7.2 4.1 9C4.1 10.8 4.1 10.998 4.1 11.7C4.10892 12.1241 4.18799 12.5438 4.334 12.942C4.44116 13.2327 4.61011 13.4967 4.82919 13.7158C5.04828 13.9349 5.31229 14.1038 5.603 14.211C5.987 14.3522 6.39109 14.4312 6.8 14.445C7.502 14.445 7.7 14.445 9.5 14.445C11.3 14.445 11.498 14.445 12.2 14.445C12.6246 14.4409 13.045 14.3616 13.442 14.211C13.7327 14.1038 13.9967 13.9349 14.2158 13.7158C14.4349 13.4967 14.6038 13.2327 14.711 12.942C14.8616 12.545 14.9409 12.1246 14.945 11.7C14.945 10.998 14.945 10.8 14.945 9C14.945 7.2 14.945 7.002 14.945 6.3C14.9453 5.87502 14.8659 5.45375 14.711 5.058V5.067ZM9.5 12.438C9.04894 12.438 8.60231 12.349 8.1857 12.1761C7.76908 12.0032 7.39067 11.7499 7.07214 11.4305C6.75361 11.1111 6.50122 10.732 6.32943 10.315C6.15764 9.89792 6.06982 9.45106 6.071 9C6.071 8.31964 6.27287 7.65459 6.65104 7.08902C7.02921 6.52345 7.56668 6.0828 8.19542 5.82285C8.82416 5.5629 9.51589 5.49535 10.183 5.62873C10.8502 5.76212 11.4628 6.09045 11.9432 6.57217C12.4237 7.05388 12.7504 7.66732 12.882 8.33481C13.0137 9.00231 12.9443 9.69386 12.6827 10.3219C12.4211 10.95 11.9791 11.4863 11.4125 11.863C10.8459 12.2397 10.1804 12.4398 9.5 12.438ZM13.1 6.237C12.901 6.21594 12.7169 6.122 12.5831 5.97327C12.4493 5.82455 12.3753 5.63156 12.3753 5.4315C12.3753 5.23144 12.4493 5.03845 12.5831 4.88973C12.7169 4.741 12.901 4.64706 13.1 4.626C13.299 4.64706 13.4831 4.741 13.6169 4.88973C13.7507 5.03845 13.8247 5.23144 13.8247 5.4315C13.8247 5.63156 13.7507 5.82455 13.6169 5.97327C13.4831 6.122 13.299 6.21594 13.1 6.237Z" fill="#F9F9F9"/>
</svg>
