<svg width="19" height="18" viewBox="0 0 19 18" fill="none" xmlns="http://www.w3.org/2000/svg">
<path d="M17.169 0.000125846H1.83099C1.65857 -0.00225428 1.48738 0.0291482 1.32717 0.09254C1.16697 0.155932 1.0209 0.250071 0.897301 0.369581C0.773705 0.489092 0.675003 0.631633 0.606834 0.789063C0.538664 0.946494 0.502362 1.11573 0.5 1.28711V16.7129C0.502362 16.8843 0.538664 17.0535 0.606834 17.2109C0.675003 17.3684 0.773705 17.5109 0.897301 17.6304C1.0209 17.7499 1.16697 17.8441 1.32717 17.9075C1.48738 17.9708 1.65857 18.0023 1.83099 17.9999H17.169C17.3414 18.0023 17.5126 17.9708 17.6728 17.9075C17.833 17.8441 17.9791 17.7499 18.1027 17.6304C18.2263 17.5109 18.325 17.3684 18.3932 17.2109C18.4613 17.0535 18.4976 16.8843 18.5 16.7129V1.28711C18.4976 1.11573 18.4613 0.946494 18.3932 0.789063C18.325 0.631633 18.2263 0.489092 18.1027 0.369581C17.9791 0.250071 17.833 0.155932 17.6728 0.09254C17.5126 0.0291482 17.3414 -0.00225428 17.169 0.000125846ZM5.95976 15.0659H3.24346V6.96603H5.95976V15.0659ZM4.60161 5.83204C4.227 5.83204 3.86773 5.68412 3.60284 5.42083C3.33795 5.15753 3.18913 4.80042 3.18913 4.42806C3.18913 4.05571 3.33795 3.6986 3.60284 3.4353C3.86773 3.172 4.227 3.02408 4.60161 3.02408C4.80053 3.00166 5.00197 3.02125 5.19274 3.08158C5.38352 3.1419 5.55932 3.2416 5.70864 3.37414C5.85796 3.50669 5.97744 3.66909 6.05924 3.85071C6.14104 4.03233 6.18333 4.22907 6.18333 4.42806C6.18333 4.62705 6.14104 4.8238 6.05924 5.00542C5.97744 5.18704 5.85796 5.34944 5.70864 5.48198C5.55932 5.61453 5.38352 5.71422 5.19274 5.77455C5.00197 5.83488 4.80053 5.85447 4.60161 5.83204ZM15.7565 15.0659H13.0402V10.719C13.0402 9.62999 12.6509 8.919 11.664 8.919C11.3585 8.92122 11.0611 9.01645 10.8118 9.19185C10.5625 9.36725 10.3733 9.6144 10.2696 9.89999C10.1988 10.1115 10.1681 10.3343 10.1791 10.557V15.0569H7.46278C7.46278 15.0569 7.46278 7.69502 7.46278 6.95703H10.1791V8.10001C10.4258 7.67441 10.7847 7.32379 11.2171 7.08591C11.6495 6.84803 12.1389 6.7319 12.6328 6.75003C14.4437 6.75003 15.7565 7.91102 15.7565 10.404V15.0659Z" fill="#F9F9F9"/>
</svg>
