<svg width="1225" height="200" viewBox="0 0 1225 200" fill="none" xmlns="http://www.w3.org/2000/svg">
<g opacity="0.6" filter="url(#filter0_n_1_2272)">
<rect width="95.7355" height="242.015" transform="matrix(-1 0 0 1 650.27 -111)" fill="url(#paint0_linear_1_2272)"/>
<rect width="95.7355" height="193.097" transform="matrix(-1 0 0 1 457.791 -111)" fill="url(#paint1_linear_1_2272)"/>
<rect width="96.7433" height="217.127" transform="matrix(-1 0 0 1 554.535 -111)" fill="url(#paint2_linear_1_2272)"/>
<rect width="95.7355" height="282.351" transform="matrix(-1 0 0 1 746.006 -111)" fill="url(#paint3_linear_1_2272)"/>
<rect width="95.7355" height="282.351" transform="matrix(-1 0 0 1 842.006 -120)" fill="url(#paint4_linear_1_2272)"/>
<rect width="95.7355" height="282.351" transform="matrix(-1 0 0 1 937.006 -140)" fill="url(#paint5_linear_1_2272)"/>
<rect width="95.7355" height="282.351" transform="matrix(-1 0 0 1 1033.01 -164)" fill="url(#paint6_linear_1_2272)"/>
<rect width="95.7355" height="282.351" transform="matrix(-1 0 0 1 1129.01 -190)" fill="url(#paint7_linear_1_2272)"/>
<rect width="95.7355" height="282.351" transform="matrix(-1 0 0 1 1225.01 -218)" fill="url(#paint8_linear_1_2272)"/>
<rect width="95.7355" height="172.5" transform="matrix(-1 0 0 1 362.057 -111)" fill="url(#paint9_linear_1_2272)"/>
<rect width="96.7433" height="182.798" transform="matrix(-1 0 0 1 266.32 -111)" fill="url(#paint10_linear_1_2272)"/>
<rect width="95.7355" height="230.858" transform="matrix(-1 0 0 1 73.8418 -111)" fill="url(#paint11_linear_1_2272)"/>
<rect width="95.7355" height="205.97" transform="matrix(-1 0 0 1 169.577 -111)" fill="url(#paint12_linear_1_2272)"/>
</g>
<defs>
<filter id="filter0_n_1_2272" x="-792" y="-218" width="2017.01" height="417.672" filterUnits="userSpaceOnUse" color-interpolation-filters="sRGB">
<feFlood flood-opacity="0" result="BackgroundImageFix"/>
<feBlend mode="normal" in="SourceGraphic" in2="BackgroundImageFix" result="shape"/>
<feTurbulence type="fractalNoise" baseFrequency="2 2" stitchTiles="stitch" numOctaves="3" result="noise" seed="5367" />
<feColorMatrix in="noise" type="luminanceToAlpha" result="alphaNoise" />
<feComponentTransfer in="alphaNoise" result="coloredNoise1">
<feFuncA type="discrete" tableValues="0 0 0 0 0 0 0 0 0 0 0 0 0 1 1 1 1 1 1 1 1 1 1 1 1 1 1 1 1 1 1 1 1 1 1 1 0 0 0 0 0 0 0 0 0 0 0 0 0 0 0 0 0 0 0 0 0 0 0 0 0 0 0 0 0 0 0 0 0 0 0 0 0 0 0 0 0 0 0 0 0 0 0 0 0 0 0 0 0 0 0 0 0 0 0 0 0 0 0 0 "/>
</feComponentTransfer>
<feComposite operator="in" in2="shape" in="coloredNoise1" result="noise1Clipped" />
<feFlood flood-color="rgba(0, 0, 0, 0.1)" result="color1Flood" />
<feComposite operator="in" in2="noise1Clipped" in="color1Flood" result="color1" />
<feMerge result="effect1_noise_1_2272">
<feMergeNode in="shape" />
<feMergeNode in="color1" />
</feMerge>
</filter>
<linearGradient id="paint0_linear_1_2272" x1="47.8678" y1="242.015" x2="47.8678" y2="0" gradientUnits="userSpaceOnUse">
<stop stop-color="#DFE00D" stop-opacity="0"/>
<stop offset="0.9" stop-color="#25B8B6"/>
</linearGradient>
<linearGradient id="paint1_linear_1_2272" x1="47.8678" y1="193.097" x2="47.8678" y2="0" gradientUnits="userSpaceOnUse">
<stop stop-color="#DFE00D" stop-opacity="0"/>
<stop offset="0.9" stop-color="#25B8B6"/>
</linearGradient>
<linearGradient id="paint2_linear_1_2272" x1="48.3716" y1="217.127" x2="48.3716" y2="0" gradientUnits="userSpaceOnUse">
<stop stop-color="#DFE00D" stop-opacity="0"/>
<stop offset="0.9" stop-color="#25B8B6"/>
</linearGradient>
<linearGradient id="paint3_linear_1_2272" x1="47.8678" y1="282.351" x2="47.8678" y2="0" gradientUnits="userSpaceOnUse">
<stop stop-color="#DFE00D" stop-opacity="0"/>
<stop offset="0.9" stop-color="#25B8B6"/>
</linearGradient>
<linearGradient id="paint4_linear_1_2272" x1="47.8678" y1="282.351" x2="47.8678" y2="0" gradientUnits="userSpaceOnUse">
<stop stop-color="#DFE00D" stop-opacity="0"/>
<stop offset="0.9" stop-color="#25B8B6"/>
</linearGradient>
<linearGradient id="paint5_linear_1_2272" x1="47.8678" y1="282.351" x2="47.8678" y2="0" gradientUnits="userSpaceOnUse">
<stop stop-color="#DFE00D" stop-opacity="0"/>
<stop offset="0.9" stop-color="#25B8B6"/>
</linearGradient>
<linearGradient id="paint6_linear_1_2272" x1="47.8678" y1="282.351" x2="47.8678" y2="0" gradientUnits="userSpaceOnUse">
<stop stop-color="#DFE00D" stop-opacity="0"/>
<stop offset="0.9" stop-color="#25B8B6"/>
</linearGradient>
<linearGradient id="paint7_linear_1_2272" x1="47.8678" y1="282.351" x2="47.8678" y2="0" gradientUnits="userSpaceOnUse">
<stop stop-color="#DFE00D" stop-opacity="0"/>
<stop offset="0.9" stop-color="#25B8B6"/>
</linearGradient>
<linearGradient id="paint8_linear_1_2272" x1="47.8678" y1="282.351" x2="47.8678" y2="0" gradientUnits="userSpaceOnUse">
<stop stop-color="#DFE00D" stop-opacity="0"/>
<stop offset="0.9" stop-color="#25B8B6"/>
</linearGradient>
<linearGradient id="paint9_linear_1_2272" x1="47.8678" y1="172.5" x2="47.8678" y2="0" gradientUnits="userSpaceOnUse">
<stop stop-color="#DFE00D" stop-opacity="0"/>
<stop offset="0.9" stop-color="#25B8B6"/>
</linearGradient>
<linearGradient id="paint10_linear_1_2272" x1="48.3716" y1="182.798" x2="48.3716" y2="0" gradientUnits="userSpaceOnUse">
<stop stop-color="#DFE00D" stop-opacity="0"/>
<stop offset="0.9" stop-color="#25B8B6"/>
</linearGradient>
<linearGradient id="paint11_linear_1_2272" x1="47.8678" y1="230.858" x2="47.8678" y2="0" gradientUnits="userSpaceOnUse">
<stop stop-color="#DFE00D" stop-opacity="0"/>
<stop offset="0.9" stop-color="#25B8B6"/>
</linearGradient>
<linearGradient id="paint12_linear_1_2272" x1="47.8678" y1="205.97" x2="47.8678" y2="0" gradientUnits="userSpaceOnUse">
<stop stop-color="#DFE00D" stop-opacity="0"/>
<stop offset="0.9" stop-color="#25B8B6"/>
</linearGradient>
</defs>
</svg>
