<svg width="1440" height="478" viewBox="0 0 1440 478" fill="none" xmlns="http://www.w3.org/2000/svg">
<g opacity="0.6" filter="url(#filter0_n_1_2242)">
<rect x="1249.9" y="478" width="95" height="304" transform="rotate(180 1249.9 478)" fill="url(#paint0_linear_1_2242)"/>
<rect x="1442.9" y="478" width="97" height="460" transform="rotate(180 1442.9 478)" fill="url(#paint1_linear_1_2242)"/>
<rect x="1057.9" y="478" width="96" height="242" transform="rotate(180 1057.9 478)" fill="url(#paint2_linear_1_2242)"/>
<rect x="1154.9" y="478" width="97" height="273" transform="rotate(180 1154.9 478)" fill="url(#paint3_linear_1_2242)"/>
<rect x="1345.9" y="478" width="96" height="354" transform="rotate(180 1345.9 478)" fill="url(#paint4_linear_1_2242)"/>
<rect x="961.975" y="478" width="96" height="202" transform="rotate(180 961.975 478)" fill="url(#paint5_linear_1_2242)"/>
<rect x="865.975" y="478" width="96" height="214" transform="rotate(180 865.975 478)" fill="url(#paint6_linear_1_2242)"/>
<rect x="481.975" y="478" width="96" height="336" transform="rotate(180 481.975 478)" fill="url(#paint7_linear_1_2242)"/>
<rect x="673.975" y="478" width="96" height="270" transform="rotate(180 673.975 478)" fill="url(#paint8_linear_1_2242)"/>
<rect x="290.041" y="478" width="96" height="300" transform="rotate(180 290.041 478)" fill="url(#paint9_linear_1_2242)"/>
<rect x="769.975" y="478" width="96" height="241" transform="rotate(180 769.975 478)" fill="url(#paint10_linear_1_2242)"/>
<rect x="385.975" y="478" width="96" height="363" transform="rotate(180 385.975 478)" fill="url(#paint11_linear_1_2242)"/>
<rect x="577.975" y="478" width="96" height="300" transform="rotate(180 577.975 478)" fill="url(#paint12_linear_1_2242)"/>
<rect x="194.041" y="478" width="97" height="273" transform="rotate(180 194.041 478)" fill="url(#paint13_linear_1_2242)"/>
<rect x="97.041" y="478" width="99" height="245" transform="rotate(180 97.041 478)" fill="url(#paint14_linear_1_2242)"/>
</g>
<defs>
<filter id="filter0_n_1_2242" x="-192" y="0" width="1822.19" height="478" filterUnits="userSpaceOnUse" color-interpolation-filters="sRGB">
<feFlood flood-opacity="0" result="BackgroundImageFix"/>
<feBlend mode="normal" in="SourceGraphic" in2="BackgroundImageFix" result="shape"/>
<feTurbulence type="fractalNoise" baseFrequency="2 2" stitchTiles="stitch" numOctaves="3" result="noise" seed="5367" />
<feColorMatrix in="noise" type="luminanceToAlpha" result="alphaNoise" />
<feComponentTransfer in="alphaNoise" result="coloredNoise1">
<feFuncA type="discrete" tableValues="0 0 0 0 0 0 0 0 0 0 0 0 0 1 1 1 1 1 1 1 1 1 1 1 1 1 1 1 1 1 1 1 1 1 1 1 0 0 0 0 0 0 0 0 0 0 0 0 0 0 0 0 0 0 0 0 0 0 0 0 0 0 0 0 0 0 0 0 0 0 0 0 0 0 0 0 0 0 0 0 0 0 0 0 0 0 0 0 0 0 0 0 0 0 0 0 0 0 0 0 "/>
</feComponentTransfer>
<feComposite operator="in" in2="shape" in="coloredNoise1" result="noise1Clipped" />
<feFlood flood-color="rgba(0, 0, 0, 0.1)" result="color1Flood" />
<feComposite operator="in" in2="noise1Clipped" in="color1Flood" result="color1" />
<feMerge result="effect1_noise_1_2242">
<feMergeNode in="shape" />
<feMergeNode in="color1" />
</feMerge>
</filter>
<linearGradient id="paint0_linear_1_2242" x1="1297.4" y1="782" x2="1297.4" y2="478" gradientUnits="userSpaceOnUse">
<stop stop-color="#DFE00D" stop-opacity="0"/>
<stop offset="0.9" stop-color="#25B8B6"/>
</linearGradient>
<linearGradient id="paint1_linear_1_2242" x1="1491.4" y1="938" x2="1491.4" y2="478" gradientUnits="userSpaceOnUse">
<stop stop-color="#DFE00D" stop-opacity="0"/>
<stop offset="0.9" stop-color="#25B8B6"/>
</linearGradient>
<linearGradient id="paint2_linear_1_2242" x1="1105.9" y1="720" x2="1105.9" y2="478" gradientUnits="userSpaceOnUse">
<stop stop-color="#DFE00D" stop-opacity="0"/>
<stop offset="0.9" stop-color="#25B8B6"/>
</linearGradient>
<linearGradient id="paint3_linear_1_2242" x1="1203.4" y1="751" x2="1203.4" y2="478" gradientUnits="userSpaceOnUse">
<stop stop-color="#DFE00D" stop-opacity="0"/>
<stop offset="0.9" stop-color="#25B8B6"/>
</linearGradient>
<linearGradient id="paint4_linear_1_2242" x1="1393.9" y1="832" x2="1393.9" y2="478" gradientUnits="userSpaceOnUse">
<stop stop-color="#DFE00D" stop-opacity="0"/>
<stop offset="0.9" stop-color="#25B8B6"/>
</linearGradient>
<linearGradient id="paint5_linear_1_2242" x1="1009.97" y1="680" x2="1009.97" y2="478" gradientUnits="userSpaceOnUse">
<stop stop-color="#DFE00D" stop-opacity="0"/>
<stop offset="0.9" stop-color="#25B8B6"/>
</linearGradient>
<linearGradient id="paint6_linear_1_2242" x1="913.975" y1="692" x2="913.975" y2="478" gradientUnits="userSpaceOnUse">
<stop stop-color="#DFE00D" stop-opacity="0"/>
<stop offset="0.9" stop-color="#25B8B6"/>
</linearGradient>
<linearGradient id="paint7_linear_1_2242" x1="529.975" y1="814" x2="529.975" y2="478" gradientUnits="userSpaceOnUse">
<stop stop-color="#DFE00D" stop-opacity="0"/>
<stop offset="0.9" stop-color="#25B8B6"/>
</linearGradient>
<linearGradient id="paint8_linear_1_2242" x1="721.975" y1="748" x2="721.975" y2="478" gradientUnits="userSpaceOnUse">
<stop stop-color="#DFE00D" stop-opacity="0"/>
<stop offset="0.9" stop-color="#25B8B6"/>
</linearGradient>
<linearGradient id="paint9_linear_1_2242" x1="338.041" y1="778" x2="338.041" y2="478" gradientUnits="userSpaceOnUse">
<stop stop-color="#DFE00D" stop-opacity="0"/>
<stop offset="0.9" stop-color="#25B8B6"/>
</linearGradient>
<linearGradient id="paint10_linear_1_2242" x1="817.975" y1="719" x2="817.975" y2="478" gradientUnits="userSpaceOnUse">
<stop stop-color="#DFE00D" stop-opacity="0"/>
<stop offset="0.9" stop-color="#25B8B6"/>
</linearGradient>
<linearGradient id="paint11_linear_1_2242" x1="433.975" y1="841" x2="433.975" y2="478" gradientUnits="userSpaceOnUse">
<stop stop-color="#DFE00D" stop-opacity="0"/>
<stop offset="0.9" stop-color="#25B8B6"/>
</linearGradient>
<linearGradient id="paint12_linear_1_2242" x1="625.975" y1="778" x2="625.975" y2="478" gradientUnits="userSpaceOnUse">
<stop stop-color="#DFE00D" stop-opacity="0"/>
<stop offset="0.9" stop-color="#25B8B6"/>
</linearGradient>
<linearGradient id="paint13_linear_1_2242" x1="242.541" y1="751" x2="242.541" y2="478" gradientUnits="userSpaceOnUse">
<stop stop-color="#DFE00D" stop-opacity="0"/>
<stop offset="0.9" stop-color="#25B8B6"/>
</linearGradient>
<linearGradient id="paint14_linear_1_2242" x1="146.541" y1="723" x2="146.541" y2="478" gradientUnits="userSpaceOnUse">
<stop stop-color="#DFE00D" stop-opacity="0"/>
<stop offset="0.9" stop-color="#25B8B6"/>
</linearGradient>
</defs>
</svg>
