<svg width="1440" height="890" viewBox="0 0 1440 890" fill="none" xmlns="http://www.w3.org/2000/svg">
<g opacity="0.45" filter="url(#filter0_n_1_1623)">
<rect width="95.7355" height="468.246" transform="matrix(1 0 0 -1 189.919 890)" fill="url(#paint0_linear_1_1623)"/>
<rect width="96.7433" height="709.011" transform="matrix(1 0 0 -1 -2.55957 890)" fill="url(#paint1_linear_1_1623)"/>
<rect width="95.7355" height="373.601" transform="matrix(1 0 0 -1 382.397 890)" fill="url(#paint2_linear_1_1623)"/>
<rect width="96.7433" height="420.093" transform="matrix(1 0 0 -1 285.654 890)" fill="url(#paint3_linear_1_1623)"/>
<rect width="95.7355" height="546.287" transform="matrix(1 0 0 -1 94.1836 890)" fill="url(#paint4_linear_1_1623)"/>
<rect width="95.7355" height="333.75" transform="matrix(1 0 0 -1 478.133 890)" fill="url(#paint5_linear_1_1623)"/>
<rect width="96.7433" height="353.675" transform="matrix(1 0 0 -1 573.869 890)" fill="url(#paint6_linear_1_1623)"/>
<rect width="96.7433" height="556.25" transform="matrix(1 0 0 -1 957.818 890)" fill="url(#paint7_linear_1_1623)"/>
<rect width="95.7355" height="446.66" transform="matrix(1 0 0 -1 766.348 890)" fill="url(#paint8_linear_1_1623)"/>
<rect width="95.7355" height="511.418" transform="matrix(1 0 0 -1 1150.3 890)" fill="url(#paint9_linear_1_1623)"/>
<rect width="95.7355" height="398.507" transform="matrix(1 0 0 -1 670.612 890)" fill="url(#paint10_linear_1_1623)"/>
<rect width="95.7355" height="601.082" transform="matrix(1 0 0 -1 1054.56 890)" fill="url(#paint11_linear_1_1623)"/>
<rect width="95.7355" height="496.474" transform="matrix(1 0 0 -1 862.083 890)" fill="url(#paint12_linear_1_1623)"/>
<rect width="97" height="465" transform="matrix(1 0 0 -1 1246 890)" fill="url(#paint13_linear_1_1623)"/>
<rect width="99" height="418" transform="matrix(1 0 0 -1 1343 890)" fill="url(#paint14_linear_1_1623)"/>
</g>
<defs>
<filter id="filter0_n_1_1623" x="-190" y="0" width="1822.19" height="890" filterUnits="userSpaceOnUse" color-interpolation-filters="sRGB">
<feFlood flood-opacity="0" result="BackgroundImageFix"/>
<feBlend mode="normal" in="SourceGraphic" in2="BackgroundImageFix" result="shape"/>
<feTurbulence type="fractalNoise" baseFrequency="2 2" stitchTiles="stitch" numOctaves="3" result="noise" seed="5367" />
<feColorMatrix in="noise" type="luminanceToAlpha" result="alphaNoise" />
<feComponentTransfer in="alphaNoise" result="coloredNoise1">
<feFuncA type="discrete" tableValues="0 0 0 0 0 0 0 0 0 0 0 0 0 1 1 1 1 1 1 1 1 1 1 1 1 1 1 1 1 1 1 1 1 1 1 1 0 0 0 0 0 0 0 0 0 0 0 0 0 0 0 0 0 0 0 0 0 0 0 0 0 0 0 0 0 0 0 0 0 0 0 0 0 0 0 0 0 0 0 0 0 0 0 0 0 0 0 0 0 0 0 0 0 0 0 0 0 0 0 0 "/>
</feComponentTransfer>
<feComposite operator="in" in2="shape" in="coloredNoise1" result="noise1Clipped" />
<feFlood flood-color="rgba(0, 0, 0, 0.1)" result="color1Flood" />
<feComposite operator="in" in2="noise1Clipped" in="color1Flood" result="color1" />
<feMerge result="effect1_noise_1_1623">
<feMergeNode in="shape" />
<feMergeNode in="color1" />
</feMerge>
</filter>
<linearGradient id="paint0_linear_1_1623" x1="47.8678" y1="468.246" x2="47.8678" y2="0" gradientUnits="userSpaceOnUse">
<stop stop-color="#DFE00D" stop-opacity="0"/>
<stop offset="0.9" stop-color="#25B8B6"/>
</linearGradient>
<linearGradient id="paint1_linear_1_1623" x1="48.3716" y1="709.011" x2="48.3716" y2="0" gradientUnits="userSpaceOnUse">
<stop stop-color="#DFE00D" stop-opacity="0"/>
<stop offset="0.9" stop-color="#25B8B6"/>
</linearGradient>
<linearGradient id="paint2_linear_1_1623" x1="47.8678" y1="373.601" x2="47.8678" y2="0" gradientUnits="userSpaceOnUse">
<stop stop-color="#DFE00D" stop-opacity="0"/>
<stop offset="0.9" stop-color="#25B8B6"/>
</linearGradient>
<linearGradient id="paint3_linear_1_1623" x1="48.3716" y1="420.093" x2="48.3716" y2="0" gradientUnits="userSpaceOnUse">
<stop stop-color="#DFE00D" stop-opacity="0"/>
<stop offset="0.9" stop-color="#25B8B6"/>
</linearGradient>
<linearGradient id="paint4_linear_1_1623" x1="47.8678" y1="546.287" x2="47.8678" y2="0" gradientUnits="userSpaceOnUse">
<stop stop-color="#DFE00D" stop-opacity="0"/>
<stop offset="0.9" stop-color="#25B8B6"/>
</linearGradient>
<linearGradient id="paint5_linear_1_1623" x1="47.8678" y1="333.75" x2="47.8678" y2="0" gradientUnits="userSpaceOnUse">
<stop stop-color="#DFE00D" stop-opacity="0"/>
<stop offset="0.9" stop-color="#25B8B6"/>
</linearGradient>
<linearGradient id="paint6_linear_1_1623" x1="48.3716" y1="353.675" x2="48.3716" y2="0" gradientUnits="userSpaceOnUse">
<stop stop-color="#DFE00D" stop-opacity="0"/>
<stop offset="0.9" stop-color="#25B8B6"/>
</linearGradient>
<linearGradient id="paint7_linear_1_1623" x1="48.3716" y1="556.25" x2="48.3716" y2="0" gradientUnits="userSpaceOnUse">
<stop stop-color="#DFE00D" stop-opacity="0"/>
<stop offset="0.9" stop-color="#25B8B6"/>
</linearGradient>
<linearGradient id="paint8_linear_1_1623" x1="47.8678" y1="446.66" x2="47.8678" y2="0" gradientUnits="userSpaceOnUse">
<stop stop-color="#DFE00D" stop-opacity="0"/>
<stop offset="0.9" stop-color="#25B8B6"/>
</linearGradient>
<linearGradient id="paint9_linear_1_1623" x1="47.8678" y1="511.418" x2="47.8678" y2="0" gradientUnits="userSpaceOnUse">
<stop stop-color="#DFE00D" stop-opacity="0"/>
<stop offset="0.9" stop-color="#25B8B6"/>
</linearGradient>
<linearGradient id="paint10_linear_1_1623" x1="47.8678" y1="398.507" x2="47.8678" y2="0" gradientUnits="userSpaceOnUse">
<stop stop-color="#DFE00D" stop-opacity="0"/>
<stop offset="0.9" stop-color="#25B8B6"/>
</linearGradient>
<linearGradient id="paint11_linear_1_1623" x1="47.8678" y1="601.082" x2="47.8678" y2="0" gradientUnits="userSpaceOnUse">
<stop stop-color="#DFE00D" stop-opacity="0"/>
<stop offset="0.9" stop-color="#25B8B6"/>
</linearGradient>
<linearGradient id="paint12_linear_1_1623" x1="47.8678" y1="496.474" x2="47.8678" y2="0" gradientUnits="userSpaceOnUse">
<stop stop-color="#DFE00D" stop-opacity="0"/>
<stop offset="0.9" stop-color="#25B8B6"/>
</linearGradient>
<linearGradient id="paint13_linear_1_1623" x1="48.5" y1="465" x2="48.5" y2="0" gradientUnits="userSpaceOnUse">
<stop stop-color="#DFE00D" stop-opacity="0"/>
<stop offset="0.9" stop-color="#25B8B6"/>
</linearGradient>
<linearGradient id="paint14_linear_1_1623" x1="49.5" y1="418" x2="49.5" y2="0" gradientUnits="userSpaceOnUse">
<stop stop-color="#DFE00D" stop-opacity="0"/>
<stop offset="0.9" stop-color="#25B8B6"/>
</linearGradient>
</defs>
</svg>
