<svg width="1440" height="960" viewBox="0 0 1440 960" fill="none" xmlns="http://www.w3.org/2000/svg">
<g opacity="0.6" filter="url(#filter0_n_154_434)">
<rect x="1347.27" y="893" width="95.7355" height="468.246" transform="rotate(180 1347.27 893)" fill="url(#paint0_linear_154_434)"/>
<rect x="1154.79" y="893" width="95.7355" height="373.601" transform="rotate(180 1154.79 893)" fill="url(#paint1_linear_154_434)"/>
<rect x="1251.54" y="893" width="96.7433" height="420.093" transform="rotate(180 1251.54 893)" fill="url(#paint2_linear_154_434)"/>
<rect x="1443.01" y="893" width="95.7355" height="546.287" transform="rotate(180 1443.01 893)" fill="url(#paint3_linear_154_434)"/>
<rect x="1059.06" y="893" width="95.7355" height="333.75" transform="rotate(180 1059.06 893)" fill="url(#paint4_linear_154_434)"/>
<rect x="963.32" y="893" width="96.7433" height="353.675" transform="rotate(180 963.32 893)" fill="url(#paint5_linear_154_434)"/>
<rect x="579.371" y="893" width="96.7433" height="556.25" transform="rotate(180 579.371 893)" fill="url(#paint6_linear_154_434)"/>
<rect x="770.842" y="893" width="95.7355" height="446.66" transform="rotate(180 770.842 893)" fill="url(#paint7_linear_154_434)"/>
<rect x="386.892" y="893" width="95.7355" height="511.418" transform="rotate(180 386.892 893)" fill="url(#paint8_linear_154_434)"/>
<rect x="866.577" y="893" width="95.7355" height="398.507" transform="rotate(180 866.577 893)" fill="url(#paint9_linear_154_434)"/>
<rect x="482.627" y="893" width="95.7355" height="601.082" transform="rotate(180 482.627 893)" fill="url(#paint10_linear_154_434)"/>
<rect x="675.106" y="893" width="95.7355" height="496.474" transform="rotate(180 675.106 893)" fill="url(#paint11_linear_154_434)"/>
<rect x="291.189" y="893" width="97" height="465" transform="rotate(180 291.189 893)" fill="url(#paint12_linear_154_434)"/>
<rect x="194.189" y="893" width="99" height="418" transform="rotate(180 194.189 893)" fill="url(#paint13_linear_154_434)"/>
<rect x="96.4707" y="893" width="95.7355" height="375.261" transform="rotate(180 96.4707 893)" fill="url(#paint14_linear_154_434)"/>
<rect x="0.735352" y="893" width="95.7355" height="340.392" transform="rotate(180 0.735352 893)" fill="url(#paint15_linear_154_434)"/>
</g>
<g filter="url(#filter1_g_154_434)">
<path d="M1317.64 374.498C1315.89 383.216 1316.86 396 1320.03 406.044C1320.66 408.06 1320.74 408.53 1320.43 408.836C1320.11 409.164 1305.17 420.977 1302.42 423.08C1301.9 423.482 1301.51 423.881 1301.53 423.94C1301.56 424.021 1306.84 423.022 1313.26 421.719C1319.69 420.445 1325.18 419.371 1325.49 419.336C1325.95 419.305 1326.26 419.636 1327.47 421.419C1333.4 430.194 1342.9 439.049 1350.91 443.272C1352.6 444.147 1353.24 444.795 1352 444.35C1351.07 444.016 1346.99 443.461 1343.79 443.246C1335.97 442.694 1326.62 443.732 1318.96 445.967C1317.49 446.393 1316.19 446.715 1316.08 446.675C1315.99 446.644 1313.02 443.076 1309.49 438.767C1300.9 428.226 1300.34 427.537 1300.22 427.592C1300.16 427.619 1301.24 432.839 1302.64 439.18C1304.04 445.543 1305.19 450.984 1305.2 451.285C1305.26 451.748 1305.03 451.983 1303.83 452.754C1294.61 458.574 1285.61 467.833 1281.21 476.066C1280.36 477.674 1279.72 478.256 1280.15 477.061C1280.48 476.148 1280.99 472.137 1281.17 469.01C1281.65 460.966 1280.36 451.253 1277.79 443.437C1277.52 442.581 1277.31 441.77 1277.35 441.661C1277.39 441.552 1281.74 438.06 1287 433.914C1292.28 429.745 1296.58 426.31 1296.55 426.251C1296.53 426.192 1291.07 427.252 1284.42 428.571C1277.79 429.898 1272.26 430.956 1272.15 430.916C1272.04 430.876 1271.53 430.203 1271.02 429.457C1266.47 422.551 1259.61 415.403 1252.94 410.654C1250.35 408.795 1246.85 406.632 1245.92 406.298C1244.71 405.861 1245.57 405.754 1247.38 406.135C1256.39 407.993 1269.67 407.162 1279.56 404.134C1281.52 403.539 1281.92 403.484 1282.24 403.823C1282.47 404.027 1286.05 408.351 1290.2 413.446C1294.32 418.532 1297.77 422.662 1297.83 422.635C1297.94 422.601 1297.75 421.674 1294.5 406.82C1293.54 402.379 1292.78 398.647 1292.81 398.56C1292.85 398.451 1293.95 397.67 1295.23 396.828C1299.96 393.742 1305.76 388.681 1309.68 384.225C1312.56 380.941 1316.85 374.775 1317.48 372.993C1317.92 371.776 1318.02 372.672 1317.64 374.498Z" fill="url(#paint16_linear_154_434)" fill-opacity="0.95"/>
</g>
<g opacity="0.75" filter="url(#filter2_gf_154_434)">
<path d="M1088.11 832.828C1109.48 821.394 1143.58 813.849 1172.28 814.221C1178.04 814.27 1179.33 814.111 1179.88 813.063C1180.49 811.976 1199.54 763.704 1202.86 754.863C1203.5 753.191 1204.23 751.852 1204.41 751.88C1204.63 751.871 1206.19 766.442 1207.84 784.213C1209.58 801.998 1211.1 817.155 1211.25 817.998C1211.54 819.225 1212.64 819.764 1218.25 821.518C1245.8 830.077 1276.38 847.892 1293.71 865.467C1297.32 869.178 1299.51 870.345 1297.37 867.459C1295.77 865.295 1291.11 855.097 1288.03 846.922C1280.43 826.934 1275.78 801.729 1275.58 780.006C1275.53 775.814 1275.36 772.194 1275.17 771.936C1275.01 771.73 1263.37 766.789 1249.35 760.971C1215.08 746.845 1212.85 745.945 1212.9 745.589C1212.93 745.411 1227.39 744.115 1245.03 742.777C1262.73 741.403 1277.83 740.116 1278.63 739.925C1279.88 739.714 1280.31 738.918 1281.37 735.176C1289.3 706.558 1306.37 675.797 1324.38 657.829C1327.91 654.341 1328.93 652.229 1326.14 654.289C1324.02 655.861 1313.96 660.358 1305.94 663.268C1285.34 670.866 1258.99 675.141 1236.57 674.584C1234.13 674.56 1231.85 674.653 1231.59 674.84C1231.34 675.027 1225.66 689.132 1218.98 706.126C1212.26 723.158 1206.69 737.099 1206.51 737.071C1206.34 737.043 1204.81 721.975 1203.01 703.591C1201.26 685.258 1199.66 669.998 1199.47 669.74C1199.28 669.483 1197.12 668.686 1194.78 667.949C1173.18 661.519 1149.13 649.243 1131.49 635.574C1124.61 630.297 1116.21 622.87 1114.61 620.705C1112.51 617.871 1112.91 620.208 1115.33 624.64C1127.27 646.682 1135.55 681.967 1135.44 710.144C1135.43 715.736 1135.6 716.809 1136.74 717.4C1137.45 717.831 1151.55 723.752 1168.1 730.564C1184.62 737.325 1198.11 743.058 1198.08 743.236C1198.08 743.555 1195.51 743.783 1154.21 747.003C1141.87 748 1131.53 748.951 1131.33 749.101C1131.08 749.289 1129.91 752.787 1128.72 756.781C1124.4 771.557 1115.75 790.649 1107.22 804.392C1100.92 814.487 1088.21 830.524 1084.06 833.595C1081.23 835.692 1083.65 835.257 1088.11 832.828Z" fill="url(#paint17_linear_154_434)" fill-opacity="0.95"/>
</g>
<g filter="url(#filter3_g_154_434)">
<path d="M826.395 278.909C836.608 283.396 849.047 293.523 857.084 303.902C858.704 305.976 859.129 306.394 859.666 306.303C860.231 306.219 883.093 299.689 887.232 298.431C888.018 298.198 888.71 298.089 888.75 298.161C888.818 298.24 883.997 302.827 878.049 308.334C872.12 313.877 867.078 318.614 866.817 318.902C866.454 319.343 866.574 319.887 867.536 322.38C872.292 334.616 874.564 350.493 873.149 361.558C872.836 363.878 873.04 364.987 873.474 363.423C873.799 362.25 876.157 357.762 878.233 354.398C883.288 346.147 891.068 337.508 898.859 331.429C900.358 330.251 901.616 329.187 901.655 329.047C901.686 328.935 900.154 323.398 898.264 316.769C893.609 300.591 893.299 299.543 893.441 299.462C893.513 299.422 898.1 304.243 903.607 310.191C909.143 316.148 913.907 321.198 914.203 321.431C914.636 321.822 915.045 321.755 916.7 321.101C929.296 316.024 945.268 313.628 956.887 315.107C959.151 315.404 960.204 315.185 958.668 314.759C957.495 314.433 953.006 312.076 949.671 310.007C941.059 304.732 932.011 296.478 925.83 288.297C925.142 287.415 924.46 286.624 924.32 286.585C924.18 286.547 917.467 288.414 909.428 290.725C901.361 293.028 894.74 294.89 894.699 294.819C894.659 294.748 899.666 290.032 905.796 284.304C911.918 278.604 916.977 273.812 917.015 273.672C917.054 273.533 916.728 272.54 916.326 271.496C912.499 261.984 910.085 249.977 910 239.879C909.945 235.954 910.237 230.892 910.562 229.719C910.988 228.184 910.258 228.973 909.346 231.066C904.785 241.439 894.398 254.166 884.187 261.92C882.165 263.464 881.826 263.821 881.937 264.393C881.984 264.767 883.859 271.452 886.112 279.265C888.374 287.05 890.143 293.465 890.072 293.505C889.957 293.594 889.142 292.736 876.217 278.835C872.344 274.694 869.057 271.256 868.945 271.225C868.806 271.186 867.21 271.736 865.428 272.414C858.859 274.953 849.501 277.139 842.107 277.884C836.665 278.42 827.254 278.305 824.964 277.67C823.401 277.236 824.246 277.982 826.395 278.909Z" fill="url(#paint18_linear_154_434)"/>
</g>
<g filter="url(#filter4_gf_154_434)">
<path d="M625.325 54.2904C631.125 69.6836 633.275 93.237 630.62 112.412C630.105 116.258 630.102 117.138 630.752 117.609C631.423 118.118 661.879 135.486 667.472 138.552C668.528 139.14 669.357 139.758 669.323 139.874C669.31 140.027 659.503 139.675 647.564 139.082C635.608 138.548 625.416 138.115 624.843 138.138C624.004 138.21 623.554 138.898 621.919 142.482C613.924 160.112 599.529 178.878 586.404 188.795C583.637 190.857 582.678 192.215 584.774 191.06C586.346 190.194 593.509 188.051 599.195 186.771C613.106 183.593 630.233 182.887 644.675 184.833C647.463 185.199 649.882 185.427 650.069 185.324C650.219 185.241 654.477 177.917 659.516 169.09C671.771 147.502 672.556 146.094 672.788 146.161C672.904 146.195 672.552 156.001 671.959 167.94C671.388 179.917 670.976 190.147 671.036 190.699C671.071 191.558 671.563 191.921 673.959 192.991C692.298 201.035 711.292 215.402 721.714 229.175C723.734 231.867 725.051 232.752 723.917 230.693C723.05 229.121 720.908 221.959 719.648 216.31C716.331 201.792 715.703 183.743 717.953 168.792C718.174 167.158 718.304 165.623 718.201 165.435C718.098 165.248 709.208 160.097 698.483 154.005C687.737 147.876 678.946 142.816 678.98 142.699C679.014 142.583 689.148 142.999 701.506 143.556C713.827 144.133 724.095 144.524 724.282 144.421C724.469 144.318 725.179 142.95 725.865 141.45C731.946 127.608 742.116 112.684 752.673 102.181C756.754 98.0772 762.39 93.1653 763.962 92.299C766.021 91.1645 764.435 91.209 761.289 92.4062C745.651 98.293 721.524 100.466 702.823 97.6964C699.11 97.1568 698.384 97.1668 697.896 97.8749C697.55 98.3095 692.435 107.179 686.523 117.61C680.648 128.02 675.71 136.5 675.593 136.466C675.382 136.437 675.446 134.694 676.773 106.736C677.145 98.382 677.381 91.3725 677.298 91.2228C677.195 91.0356 674.97 89.9199 672.417 88.7409C662.968 84.434 651.015 76.8231 642.605 69.797C636.43 64.6129 626.847 54.5736 625.155 51.5048C624 49.4091 624.086 51.0696 625.325 54.2904Z" fill="url(#paint19_linear_154_434)"/>
</g>
<g filter="url(#filter5_gf_154_434)">
<path d="M78.7984 185.802C68.7344 204.776 47.5267 227.222 26.4576 241.183C22.2468 243.999 21.3826 244.756 21.4826 245.8C21.5637 246.896 30.8584 291.72 32.6869 299.844C33.0227 301.387 33.1336 302.73 32.9909 302.798C32.8293 302.918 24.7055 293.01 14.9745 280.808C5.17221 268.639 -3.20627 258.285 -3.72349 257.743C-4.51816 256.984 -5.58049 257.137 -10.5027 258.632C-34.6708 266.028 -65.4788 268.138 -86.5242 263.851C-90.9329 262.922 -93.0912 263.156 -90.1502 264.211C-87.9444 265.002 -79.6605 270.165 -73.4963 274.628C-58.3704 285.505 -42.8874 301.667 -32.3204 317.489C-30.2714 320.536 -28.4057 323.101 -28.1431 323.195C-27.933 323.271 -17.0839 321.116 -4.08723 318.426C27.6349 311.783 29.6921 311.335 29.8269 311.621C29.8942 311.764 19.9869 319.887 7.78428 329.618C-4.43714 339.402 -14.8103 347.833 -15.2989 348.369C-16.1105 349.145 -16.0403 349.941 -15.0199 353.211C-7.05808 378.115 -4.72248 409.122 -9.20973 431.222C-10.101 435.526 -9.82971 437.579 -8.79388 434.691C-8.00288 432.485 -2.8392 424.201 1.60484 418.089C12.9558 402.303 30.087 386.101 46.6707 375.392C48.4625 374.198 50.0779 372.999 50.172 372.736C50.2662 372.473 47.6335 359.319 44.3362 343.556C41.0577 327.74 38.4211 314.762 38.5638 314.695C38.7065 314.627 47.0513 324.91 57.1796 337.492C67.2553 350.056 75.7389 360.448 76.0015 360.542C76.264 360.636 78.2163 360.151 80.2775 359.527C99.0844 353.527 122.481 350.596 141.883 351.864C149.426 352.316 159.104 353.594 161.309 354.385C164.198 355.42 162.785 353.906 158.896 351.859C139.626 341.63 116.662 319.881 103.223 299.177C100.545 295.075 99.9078 294.372 98.793 294.506C98.0686 294.543 84.9669 297.194 69.6465 300.413C54.3785 303.651 41.81 306.138 41.7426 305.995C41.5891 305.763 43.3511 304.32 71.874 281.474C80.3761 274.625 87.4432 268.802 87.5185 268.591C87.6127 268.329 86.7836 265.186 85.7335 261.668C81.7908 248.697 78.9208 230.419 78.5377 216.116C78.2811 205.592 79.8357 187.538 81.3801 183.231C82.4347 180.29 80.8828 181.808 78.7984 185.802Z" fill="url(#paint20_linear_154_434)"/>
</g>
<g filter="url(#filter6_g_154_434)">
<path d="M654.574 635.984C647.535 654.665 644.926 683.249 648.147 706.52C648.773 711.187 648.776 712.255 647.987 712.827C647.173 713.444 610.211 734.523 603.424 738.243C602.142 738.957 601.137 739.706 601.178 739.847C601.193 740.034 613.095 739.606 627.584 738.887C642.094 738.239 654.463 737.713 655.158 737.741C656.176 737.829 656.723 738.663 658.707 743.013C668.41 764.409 685.88 787.183 701.807 799.218C705.166 801.721 706.33 803.369 703.786 801.967C701.879 800.916 693.186 798.316 686.285 796.762C669.403 792.905 648.617 792.048 631.09 794.409C627.707 794.854 624.771 795.131 624.544 795.006C624.363 794.905 619.195 786.017 613.079 775.304C598.207 749.105 597.254 747.396 596.972 747.478C596.831 747.518 597.259 759.42 597.978 773.909C598.672 788.444 599.172 800.858 599.099 801.529C599.057 802.571 598.459 803.012 595.552 804.311C573.295 814.072 550.244 831.508 537.596 848.223C535.144 851.49 533.546 852.564 534.923 850.066C535.974 848.158 538.574 839.465 540.103 832.61C544.129 814.992 544.891 793.088 542.16 774.943C541.892 772.959 541.734 771.096 541.859 770.869C541.985 770.642 552.773 764.39 565.789 756.997C578.831 749.558 589.499 743.418 589.458 743.277C589.417 743.136 577.118 743.641 562.12 744.316C547.167 745.016 534.707 745.491 534.48 745.366C534.253 745.241 533.391 743.581 532.559 741.761C525.178 724.962 512.837 706.849 500.025 694.103C495.072 689.123 488.231 683.162 486.324 682.111C483.826 680.734 485.75 680.788 489.568 682.241C508.547 689.385 537.826 692.022 560.522 688.661C565.028 688.006 565.91 688.018 566.502 688.878C566.922 689.405 573.128 700.169 580.304 712.828C587.433 725.462 593.427 735.753 593.568 735.712C593.825 735.676 593.747 733.561 592.137 699.631C591.685 689.493 591.399 680.986 591.499 680.805C591.624 680.578 594.325 679.224 597.423 677.793C608.89 672.566 623.396 663.329 633.602 654.802C641.097 648.511 652.727 636.327 654.779 632.603C656.181 630.06 656.077 632.075 654.574 635.984Z" fill="url(#paint21_linear_154_434)"/>
</g>
<g filter="url(#filter7_g_154_434)">
<path d="M1310.27 442.956C1325.89 461.046 1354.77 480.28 1381.56 490.409C1386.91 492.462 1388.06 493.076 1388.18 494.223C1388.34 495.422 1388.24 545.854 1388.06 555.027C1388.04 556.767 1388.22 558.24 1388.4 558.279C1388.6 558.371 1395.42 545.811 1403.51 530.406C1411.68 515.021 1418.68 501.921 1419.13 501.218C1419.85 500.215 1421.07 500.132 1426.92 500.596C1455.67 502.935 1490.63 498.037 1513.19 488.522C1517.91 486.496 1520.38 486.245 1517.33 488.065C1515.05 489.431 1506.96 496.919 1501.09 503.16C1486.66 518.393 1473.05 539.401 1464.86 558.898C1463.26 562.655 1461.76 565.852 1461.49 566.015C1461.27 566.145 1448.64 566.349 1433.48 566.478C1396.45 566.708 1394.05 566.705 1393.96 567.044C1393.92 567.213 1406.87 573.655 1422.76 581.294C1438.69 588.984 1452.23 595.649 1452.9 596.112C1453.99 596.759 1454.09 597.632 1453.7 601.391C1450.51 630.062 1455.02 663.995 1465.12 686.749C1467.1 691.176 1467.27 693.45 1465.45 690.58C1464.06 688.389 1456.37 680.671 1450 675.124C1433.67 660.767 1410.78 647.307 1389.76 639.636C1387.48 638.766 1385.4 637.851 1385.23 637.59C1385.07 637.329 1384.99 622.552 1385.06 604.81C1385.1 587.015 1385.07 572.427 1384.89 572.387C1384.72 572.348 1377.74 585.363 1369.3 601.27C1360.91 617.144 1353.8 630.309 1353.53 630.471C1353.26 630.634 1350.96 630.565 1348.51 630.373C1326.09 628.29 1299.23 630.58 1277.81 636.461C1269.48 638.704 1258.94 642.332 1256.65 643.697C1253.66 645.485 1254.89 643.525 1258.77 640.416C1277.99 624.915 1298.69 596.15 1308.97 570.727C1311.03 565.687 1311.58 564.782 1312.86 564.666C1313.68 564.537 1328.95 564.343 1346.83 564.243C1364.66 564.176 1379.29 563.929 1379.34 563.76C1379.46 563.473 1377.15 562.33 1339.99 544.368C1328.9 538.971 1319.65 534.345 1319.52 534.136C1319.36 533.875 1319.56 530.299 1319.93 526.266C1321.36 511.38 1320.38 491.03 1317.52 475.538C1315.39 464.146 1309.5 445.066 1306.79 440.788C1304.93 437.867 1307.02 439.14 1310.27 442.956Z" fill="url(#paint22_linear_154_434)" fill-opacity="0.95"/>
</g>
<defs>
<filter id="filter0_n_154_434" x="-95" y="3" width="1822.19" height="890" filterUnits="userSpaceOnUse" color-interpolation-filters="sRGB">
<feFlood flood-opacity="0" result="BackgroundImageFix"/>
<feBlend mode="normal" in="SourceGraphic" in2="BackgroundImageFix" result="shape"/>
<feTurbulence type="fractalNoise" baseFrequency="2 2" stitchTiles="stitch" numOctaves="3" result="noise" seed="5367" />
<feColorMatrix in="noise" type="luminanceToAlpha" result="alphaNoise" />
<feComponentTransfer in="alphaNoise" result="coloredNoise1">
<feFuncA type="discrete" tableValues="0 0 0 0 0 0 0 0 0 0 0 0 0 1 1 1 1 1 1 1 1 1 1 1 1 1 1 1 1 1 1 1 1 1 1 1 0 0 0 0 0 0 0 0 0 0 0 0 0 0 0 0 0 0 0 0 0 0 0 0 0 0 0 0 0 0 0 0 0 0 0 0 0 0 0 0 0 0 0 0 0 0 0 0 0 0 0 0 0 0 0 0 0 0 0 0 0 0 0 0 "/>
</feComponentTransfer>
<feComposite operator="in" in2="shape" in="coloredNoise1" result="noise1Clipped" />
<feFlood flood-color="rgba(0, 0, 0, 0.1)" result="color1Flood" />
<feComposite operator="in" in2="noise1Clipped" in="color1Flood" result="color1" />
<feMerge result="effect1_noise_154_434">
<feMergeNode in="shape" />
<feMergeNode in="color1" />
</feMerge>
</filter>
<filter id="filter1_g_154_434" x="1243.36" y="370.436" width="111.29" height="109.26" filterUnits="userSpaceOnUse" color-interpolation-filters="sRGB">
<feFlood flood-opacity="0" result="BackgroundImageFix"/>
<feBlend mode="normal" in="SourceGraphic" in2="BackgroundImageFix" result="shape"/>
<feTurbulence type="fractalNoise" baseFrequency="0.29888087511062622 0.29888087511062622" numOctaves="3" seed="3604" />
<feDisplacementMap in="shape" scale="4" xChannelSelector="R" yChannelSelector="G" result="displacedImage" width="100%" height="100%" />
<feMerge result="effect1_texture_154_434">
<feMergeNode in="displacedImage"/>
</feMerge>
</filter>
<filter id="filter2_gf_154_434" x="1080.84" y="617.467" width="248.896" height="253.609" filterUnits="userSpaceOnUse" color-interpolation-filters="sRGB">
<feFlood flood-opacity="0" result="BackgroundImageFix"/>
<feBlend mode="normal" in="SourceGraphic" in2="BackgroundImageFix" result="shape"/>
<feTurbulence type="fractalNoise" baseFrequency="0.29888087511062622 0.29888087511062622" numOctaves="3" seed="3604" />
<feDisplacementMap in="shape" scale="4" xChannelSelector="R" yChannelSelector="G" result="displacedImage" width="100%" height="100%" />
<feMerge result="effect1_texture_154_434">
<feMergeNode in="displacedImage"/>
</feMerge>
<feGaussianBlur stdDeviation="1" result="effect2_foregroundBlur_154_434"/>
</filter>
<filter id="filter3_g_154_434" x="821.995" y="226.753" width="139.562" height="139.562" filterUnits="userSpaceOnUse" color-interpolation-filters="sRGB">
<feFlood flood-opacity="0" result="BackgroundImageFix"/>
<feBlend mode="normal" in="SourceGraphic" in2="BackgroundImageFix" result="shape"/>
<feTurbulence type="fractalNoise" baseFrequency="0.46196508407592773 0.46196508407592773" numOctaves="3" seed="3604" />
<feDisplacementMap in="shape" scale="4.3293313980102539" xChannelSelector="R" yChannelSelector="G" result="displacedImage" width="100%" height="100%" />
<feMerge result="effect1_texture_154_434">
<feMergeNode in="displacedImage"/>
</feMerge>
</filter>
<filter id="filter4_gf_154_434" x="578.662" y="45.5954" width="191.203" height="191.21" filterUnits="userSpaceOnUse" color-interpolation-filters="sRGB">
<feFlood flood-opacity="0" result="BackgroundImageFix"/>
<feBlend mode="normal" in="SourceGraphic" in2="BackgroundImageFix" result="shape"/>
<feTurbulence type="fractalNoise" baseFrequency="0.20092900097370148 0.20092900097370148" numOctaves="3" seed="3604" />
<feDisplacementMap in="shape" scale="9.9537649154663086" xChannelSelector="R" yChannelSelector="G" result="displacedImage" width="100%" height="100%" />
<feMerge result="effect1_texture_154_434">
<feMergeNode in="displacedImage"/>
</feMerge>
<feGaussianBlur stdDeviation="2" result="effect2_foregroundBlur_154_434"/>
</filter>
<filter id="filter5_gf_154_434" x="-97.5409" y="175.655" width="266.423" height="266.418" filterUnits="userSpaceOnUse" color-interpolation-filters="sRGB">
<feFlood flood-opacity="0" result="BackgroundImageFix"/>
<feBlend mode="normal" in="SourceGraphic" in2="BackgroundImageFix" result="shape"/>
<feTurbulence type="fractalNoise" baseFrequency="0.16556468605995178 0.16556468605995178" numOctaves="3" seed="3604" />
<feDisplacementMap in="shape" scale="12.079870223999023" xChannelSelector="R" yChannelSelector="G" result="displacedImage" width="100%" height="100%" />
<feMerge result="effect1_texture_154_434">
<feMergeNode in="displacedImage"/>
</feMerge>
<feGaussianBlur stdDeviation="2" result="effect2_foregroundBlur_154_434"/>
</filter>
<filter id="filter6_g_154_434" x="479.16" y="625.433" width="232.043" height="232.049" filterUnits="userSpaceOnUse" color-interpolation-filters="sRGB">
<feFlood flood-opacity="0" result="BackgroundImageFix"/>
<feBlend mode="normal" in="SourceGraphic" in2="BackgroundImageFix" result="shape"/>
<feTurbulence type="fractalNoise" baseFrequency="0.16556468605995178 0.16556468605995178" numOctaves="3" seed="3604" />
<feDisplacementMap in="shape" scale="12.079870223999023" xChannelSelector="R" yChannelSelector="G" result="displacedImage" width="100%" height="100%" />
<feMerge result="effect1_texture_154_434">
<feMergeNode in="displacedImage"/>
</feMerge>
</filter>
<filter id="filter7_g_154_434" x="1251.44" y="435.636" width="270.786" height="259.767" filterUnits="userSpaceOnUse" color-interpolation-filters="sRGB">
<feFlood flood-opacity="0" result="BackgroundImageFix"/>
<feBlend mode="normal" in="SourceGraphic" in2="BackgroundImageFix" result="shape"/>
<feTurbulence type="fractalNoise" baseFrequency="0.28190040588378906 0.28190040588378906" numOctaves="3" seed="3604" />
<feDisplacementMap in="shape" scale="7.0947041511535645" xChannelSelector="R" yChannelSelector="G" result="displacedImage" width="100%" height="100%" />
<feMerge result="effect1_texture_154_434">
<feMergeNode in="displacedImage"/>
</feMerge>
</filter>
<linearGradient id="paint0_linear_154_434" x1="1395.14" y1="1361.25" x2="1395.14" y2="893" gradientUnits="userSpaceOnUse">
<stop stop-color="#DFE00D" stop-opacity="0"/>
<stop offset="0.9" stop-color="#25B8B6"/>
</linearGradient>
<linearGradient id="paint1_linear_154_434" x1="1202.66" y1="1266.6" x2="1202.66" y2="893" gradientUnits="userSpaceOnUse">
<stop stop-color="#DFE00D" stop-opacity="0"/>
<stop offset="0.9" stop-color="#25B8B6"/>
</linearGradient>
<linearGradient id="paint2_linear_154_434" x1="1299.91" y1="1313.09" x2="1299.91" y2="893" gradientUnits="userSpaceOnUse">
<stop stop-color="#DFE00D" stop-opacity="0"/>
<stop offset="0.9" stop-color="#25B8B6"/>
</linearGradient>
<linearGradient id="paint3_linear_154_434" x1="1490.87" y1="1439.29" x2="1490.87" y2="893" gradientUnits="userSpaceOnUse">
<stop stop-color="#DFE00D" stop-opacity="0"/>
<stop offset="0.9" stop-color="#25B8B6"/>
</linearGradient>
<linearGradient id="paint4_linear_154_434" x1="1106.92" y1="1226.75" x2="1106.92" y2="893" gradientUnits="userSpaceOnUse">
<stop stop-color="#DFE00D" stop-opacity="0"/>
<stop offset="0.9" stop-color="#25B8B6"/>
</linearGradient>
<linearGradient id="paint5_linear_154_434" x1="1011.69" y1="1246.68" x2="1011.69" y2="893" gradientUnits="userSpaceOnUse">
<stop stop-color="#DFE00D" stop-opacity="0"/>
<stop offset="0.9" stop-color="#25B8B6"/>
</linearGradient>
<linearGradient id="paint6_linear_154_434" x1="627.743" y1="1449.25" x2="627.743" y2="893" gradientUnits="userSpaceOnUse">
<stop stop-color="#DFE00D" stop-opacity="0"/>
<stop offset="0.9" stop-color="#25B8B6"/>
</linearGradient>
<linearGradient id="paint7_linear_154_434" x1="818.71" y1="1339.66" x2="818.71" y2="893" gradientUnits="userSpaceOnUse">
<stop stop-color="#DFE00D" stop-opacity="0"/>
<stop offset="0.9" stop-color="#25B8B6"/>
</linearGradient>
<linearGradient id="paint8_linear_154_434" x1="434.759" y1="1404.42" x2="434.759" y2="893" gradientUnits="userSpaceOnUse">
<stop stop-color="#DFE00D" stop-opacity="0"/>
<stop offset="0.9" stop-color="#25B8B6"/>
</linearGradient>
<linearGradient id="paint9_linear_154_434" x1="914.445" y1="1291.51" x2="914.445" y2="893" gradientUnits="userSpaceOnUse">
<stop stop-color="#DFE00D" stop-opacity="0"/>
<stop offset="0.9" stop-color="#25B8B6"/>
</linearGradient>
<linearGradient id="paint10_linear_154_434" x1="530.495" y1="1494.08" x2="530.495" y2="893" gradientUnits="userSpaceOnUse">
<stop stop-color="#DFE00D" stop-opacity="0"/>
<stop offset="0.9" stop-color="#25B8B6"/>
</linearGradient>
<linearGradient id="paint11_linear_154_434" x1="722.974" y1="1389.47" x2="722.974" y2="893" gradientUnits="userSpaceOnUse">
<stop stop-color="#DFE00D" stop-opacity="0"/>
<stop offset="0.9" stop-color="#25B8B6"/>
</linearGradient>
<linearGradient id="paint12_linear_154_434" x1="339.689" y1="1358" x2="339.689" y2="893" gradientUnits="userSpaceOnUse">
<stop stop-color="#DFE00D" stop-opacity="0"/>
<stop offset="0.9" stop-color="#25B8B6"/>
</linearGradient>
<linearGradient id="paint13_linear_154_434" x1="243.689" y1="1311" x2="243.689" y2="893" gradientUnits="userSpaceOnUse">
<stop stop-color="#DFE00D" stop-opacity="0"/>
<stop offset="0.9" stop-color="#25B8B6"/>
</linearGradient>
<linearGradient id="paint14_linear_154_434" x1="144.338" y1="1268.26" x2="144.338" y2="893" gradientUnits="userSpaceOnUse">
<stop stop-color="#DFE00D" stop-opacity="0"/>
<stop offset="0.9" stop-color="#25B8B6"/>
</linearGradient>
<linearGradient id="paint15_linear_154_434" x1="48.6031" y1="1233.39" x2="48.6031" y2="893" gradientUnits="userSpaceOnUse">
<stop stop-color="#DFE00D" stop-opacity="0"/>
<stop offset="0.9" stop-color="#25B8B6"/>
</linearGradient>
<linearGradient id="paint16_linear_154_434" x1="1317.92" y1="372.478" x2="1280.16" y2="477.734" gradientUnits="userSpaceOnUse">
<stop offset="0.195862" stop-color="#25B8B6"/>
<stop offset="0.667296" stop-color="#DFE00D" stop-opacity="0.65"/>
<stop offset="1" stop-color="#DFE00D" stop-opacity="0"/>
</linearGradient>
<linearGradient id="paint17_linear_154_434" x1="1083.06" y1="835.138" x2="1327.91" y2="653.785" gradientUnits="userSpaceOnUse">
<stop offset="0.195862" stop-color="#25B8B6"/>
<stop offset="0.667296" stop-color="#DFE00D" stop-opacity="0.65"/>
<stop offset="1" stop-color="#DFE00D" stop-opacity="0"/>
</linearGradient>
<linearGradient id="paint18_linear_154_434" x1="824.122" y1="277.739" x2="959.352" y2="315.251" gradientUnits="userSpaceOnUse">
<stop stop-color="#DFE00D" stop-opacity="0"/>
<stop offset="1" stop-color="#DFE00D"/>
</linearGradient>
<linearGradient id="paint19_linear_154_434" x1="624.215" y1="50.6878" x2="720.466" y2="141.35" gradientUnits="userSpaceOnUse">
<stop stop-color="#DFE00D"/>
<stop offset="1" stop-color="#25B8B6" stop-opacity="0"/>
</linearGradient>
<linearGradient id="paint20_linear_154_434" x1="81.3678" y1="181.604" x2="75.7134" y2="354.153" gradientUnits="userSpaceOnUse">
<stop stop-color="#DFE00D"/>
<stop offset="1" stop-color="#25B8B6" stop-opacity="0"/>
</linearGradient>
<linearGradient id="paint21_linear_154_434" x1="655.921" y1="631.611" x2="539.111" y2="741.639" gradientUnits="userSpaceOnUse">
<stop stop-color="#DFE00D"/>
<stop offset="1" stop-color="#25B8B6" stop-opacity="0"/>
</linearGradient>
<linearGradient id="paint22_linear_154_434" x1="1306.43" y1="439.034" x2="1459.79" y2="695.919" gradientUnits="userSpaceOnUse">
<stop stop-color="#DFE00D"/>
<stop offset="0.610577" stop-color="#DFE00D" stop-opacity="0.65"/>
<stop offset="1" stop-color="#DFE00D" stop-opacity="0"/>
</linearGradient>
</defs>
</svg>
