<svg width="1440" height="516" viewBox="0 0 1440 516" fill="none" xmlns="http://www.w3.org/2000/svg">
<g opacity="0.6">
<rect x="1220" y="515" width="73" height="515" transform="rotate(180 1220 515)" fill="url(#paint0_linear_141_31)"/>
<rect x="915.807" y="515.15" width="76.9005" height="292.919" transform="rotate(180 915.807 515.15)" fill="url(#paint1_linear_141_31)"/>
<rect x="1069.61" y="515.15" width="76.9005" height="443.916" transform="rotate(180 1069.61 515.15)" fill="url(#paint2_linear_141_31)"/>
<rect x="762.005" y="515.15" width="76.9005" height="234.22" transform="rotate(180 762.005 515.15)" fill="url(#paint3_linear_141_31)"/>
<rect x="1146.93" y="515.15" width="77.5396" height="464.08" transform="rotate(180 1146.93 515.15)" fill="url(#paint4_linear_141_31)"/>
<rect x="838.905" y="515.15" width="76.9005" height="263.001" transform="rotate(180 838.905 515.15)" fill="url(#paint5_linear_141_31)"/>
<rect x="992.707" y="515.15" width="76.9005" height="341.601" transform="rotate(180 992.707 515.15)" fill="url(#paint6_linear_141_31)"/>
<rect x="685.104" y="515.15" width="76.9005" height="209.408" transform="rotate(180 685.104 515.15)" fill="url(#paint7_linear_141_31)"/>
<rect x="608.204" y="515.15" width="76.9005" height="221.762" transform="rotate(180 608.204 515.15)" fill="url(#paint8_linear_141_31)"/>
<rect x="300.603" y="515.15" width="76.9005" height="348.202" transform="rotate(180 300.603 515.15)" fill="url(#paint9_linear_141_31)"/>
<rect x="454.403" y="515.15" width="76.9005" height="279.362" transform="rotate(180 454.403 515.15)" fill="url(#paint10_linear_141_31)"/>
<rect x="146.801" y="515.15" width="76.9005" height="320.148" transform="rotate(180 146.801 515.15)" fill="url(#paint11_linear_141_31)"/>
<rect x="531.304" y="515.15" width="76.9005" height="249.122" transform="rotate(180 531.304 515.15)" fill="url(#paint12_linear_141_31)"/>
<rect x="223.701" y="515.15" width="76.9005" height="376.256" transform="rotate(180 223.701 515.15)" fill="url(#paint13_linear_141_31)"/>
<rect x="377.503" y="515.15" width="76.9005" height="311.043" transform="rotate(180 377.503 515.15)" fill="url(#paint14_linear_141_31)"/>
<rect x="69.9004" y="515.15" width="76.9005" height="290.882" transform="rotate(180 69.9004 515.15)" fill="url(#paint15_linear_141_31)"/>
</g>
<g opacity="0.6">
<rect width="73" height="464" transform="matrix(1 0 0 -1 1220 515)" fill="url(#paint16_linear_141_31)"/>
<rect width="76.9005" height="418.25" transform="matrix(1 0 0 -1 1370.39 515.15)" fill="url(#paint17_linear_141_31)"/>
<rect width="77.5396" height="437.249" transform="matrix(1 0 0 -1 1293.07 515.15)" fill="url(#paint18_linear_141_31)"/>
</g>
<defs>
<linearGradient id="paint0_linear_141_31" x1="1256.5" y1="1030" x2="1256.5" y2="515" gradientUnits="userSpaceOnUse">
<stop stop-color="#DFE00D" stop-opacity="0"/>
<stop offset="0.9" stop-color="#25B8B6"/>
</linearGradient>
<linearGradient id="paint1_linear_141_31" x1="954.257" y1="808.069" x2="954.257" y2="515.15" gradientUnits="userSpaceOnUse">
<stop stop-color="#DFE00D" stop-opacity="0"/>
<stop offset="0.9" stop-color="#25B8B6"/>
</linearGradient>
<linearGradient id="paint2_linear_141_31" x1="1108.06" y1="959.067" x2="1108.06" y2="515.15" gradientUnits="userSpaceOnUse">
<stop stop-color="#DFE00D" stop-opacity="0"/>
<stop offset="0.9" stop-color="#25B8B6"/>
</linearGradient>
<linearGradient id="paint3_linear_141_31" x1="800.455" y1="749.37" x2="800.455" y2="515.15" gradientUnits="userSpaceOnUse">
<stop stop-color="#DFE00D" stop-opacity="0"/>
<stop offset="0.9" stop-color="#25B8B6"/>
</linearGradient>
<linearGradient id="paint4_linear_141_31" x1="1185.7" y1="979.231" x2="1185.7" y2="515.15" gradientUnits="userSpaceOnUse">
<stop stop-color="#DFE00D" stop-opacity="0"/>
<stop offset="0.9" stop-color="#25B8B6"/>
</linearGradient>
<linearGradient id="paint5_linear_141_31" x1="877.356" y1="778.151" x2="877.356" y2="515.15" gradientUnits="userSpaceOnUse">
<stop stop-color="#DFE00D" stop-opacity="0"/>
<stop offset="0.9" stop-color="#25B8B6"/>
</linearGradient>
<linearGradient id="paint6_linear_141_31" x1="1031.16" y1="856.751" x2="1031.16" y2="515.15" gradientUnits="userSpaceOnUse">
<stop stop-color="#DFE00D" stop-opacity="0"/>
<stop offset="0.9" stop-color="#25B8B6"/>
</linearGradient>
<linearGradient id="paint7_linear_141_31" x1="723.555" y1="724.559" x2="723.555" y2="515.15" gradientUnits="userSpaceOnUse">
<stop stop-color="#DFE00D" stop-opacity="0"/>
<stop offset="0.9" stop-color="#25B8B6"/>
</linearGradient>
<linearGradient id="paint8_linear_141_31" x1="646.654" y1="736.912" x2="646.654" y2="515.15" gradientUnits="userSpaceOnUse">
<stop stop-color="#DFE00D" stop-opacity="0"/>
<stop offset="0.9" stop-color="#25B8B6"/>
</linearGradient>
<linearGradient id="paint9_linear_141_31" x1="339.053" y1="863.352" x2="339.053" y2="515.15" gradientUnits="userSpaceOnUse">
<stop stop-color="#DFE00D" stop-opacity="0"/>
<stop offset="0.9" stop-color="#25B8B6"/>
</linearGradient>
<linearGradient id="paint10_linear_141_31" x1="492.854" y1="794.513" x2="492.854" y2="515.15" gradientUnits="userSpaceOnUse">
<stop stop-color="#DFE00D" stop-opacity="0"/>
<stop offset="0.9" stop-color="#25B8B6"/>
</linearGradient>
<linearGradient id="paint11_linear_141_31" x1="185.251" y1="835.298" x2="185.251" y2="515.15" gradientUnits="userSpaceOnUse">
<stop stop-color="#DFE00D" stop-opacity="0"/>
<stop offset="0.9" stop-color="#25B8B6"/>
</linearGradient>
<linearGradient id="paint12_linear_141_31" x1="569.754" y1="764.272" x2="569.754" y2="515.15" gradientUnits="userSpaceOnUse">
<stop stop-color="#DFE00D" stop-opacity="0"/>
<stop offset="0.9" stop-color="#25B8B6"/>
</linearGradient>
<linearGradient id="paint13_linear_141_31" x1="262.151" y1="891.407" x2="262.151" y2="515.15" gradientUnits="userSpaceOnUse">
<stop stop-color="#DFE00D" stop-opacity="0"/>
<stop offset="0.9" stop-color="#25B8B6"/>
</linearGradient>
<linearGradient id="paint14_linear_141_31" x1="415.953" y1="826.193" x2="415.953" y2="515.15" gradientUnits="userSpaceOnUse">
<stop stop-color="#DFE00D" stop-opacity="0"/>
<stop offset="0.9" stop-color="#25B8B6"/>
</linearGradient>
<linearGradient id="paint15_linear_141_31" x1="108.351" y1="806.033" x2="108.351" y2="515.15" gradientUnits="userSpaceOnUse">
<stop stop-color="#DFE00D" stop-opacity="0"/>
<stop offset="0.9" stop-color="#25B8B6"/>
</linearGradient>
<linearGradient id="paint16_linear_141_31" x1="36.5" y1="464" x2="36.5" y2="0" gradientUnits="userSpaceOnUse">
<stop stop-color="#DFE00D" stop-opacity="0"/>
<stop offset="0.9" stop-color="#25B8B6"/>
</linearGradient>
<linearGradient id="paint17_linear_141_31" x1="38.4503" y1="418.25" x2="38.4503" y2="0" gradientUnits="userSpaceOnUse">
<stop stop-color="#DFE00D" stop-opacity="0"/>
<stop offset="0.9" stop-color="#25B8B6"/>
</linearGradient>
<linearGradient id="paint18_linear_141_31" x1="38.7698" y1="437.249" x2="38.7698" y2="0" gradientUnits="userSpaceOnUse">
<stop stop-color="#DFE00D" stop-opacity="0"/>
<stop offset="0.9" stop-color="#25B8B6"/>
</linearGradient>
</defs>
</svg>
