<svg width="1440" height="890" viewBox="0 0 1440 890" fill="none" xmlns="http://www.w3.org/2000/svg">
<g opacity="0.6" filter="url(#filter0_n_141_86)">
<rect x="1347.27" y="890" width="95.7355" height="468.246" transform="rotate(180 1347.27 890)" fill="url(#paint0_linear_141_86)"/>
<rect x="1154.79" y="890" width="95.7355" height="373.601" transform="rotate(180 1154.79 890)" fill="url(#paint1_linear_141_86)"/>
<rect x="1251.54" y="890" width="96.7433" height="420.093" transform="rotate(180 1251.54 890)" fill="url(#paint2_linear_141_86)"/>
<rect x="1443.01" y="890" width="95.7355" height="546.287" transform="rotate(180 1443.01 890)" fill="url(#paint3_linear_141_86)"/>
<rect x="1059.06" y="890" width="95.7355" height="333.75" transform="rotate(180 1059.06 890)" fill="url(#paint4_linear_141_86)"/>
<rect x="963.32" y="890" width="96.7433" height="353.675" transform="rotate(180 963.32 890)" fill="url(#paint5_linear_141_86)"/>
<rect x="579.371" y="890" width="96.7433" height="556.25" transform="rotate(180 579.371 890)" fill="url(#paint6_linear_141_86)"/>
<rect x="770.842" y="890" width="95.7355" height="446.66" transform="rotate(180 770.842 890)" fill="url(#paint7_linear_141_86)"/>
<rect x="386.892" y="890" width="95.7355" height="511.418" transform="rotate(180 386.892 890)" fill="url(#paint8_linear_141_86)"/>
<rect x="866.577" y="890" width="95.7355" height="398.507" transform="rotate(180 866.577 890)" fill="url(#paint9_linear_141_86)"/>
<rect x="482.627" y="890" width="95.7355" height="601.082" transform="rotate(180 482.627 890)" fill="url(#paint10_linear_141_86)"/>
<rect x="675.106" y="890" width="95.7355" height="496.474" transform="rotate(180 675.106 890)" fill="url(#paint11_linear_141_86)"/>
<rect x="291.189" y="890" width="97" height="465" transform="rotate(180 291.189 890)" fill="url(#paint12_linear_141_86)"/>
<rect x="194.189" y="890" width="99" height="418" transform="rotate(180 194.189 890)" fill="url(#paint13_linear_141_86)"/>
<rect x="96.4707" y="890" width="95.7355" height="375.261" transform="rotate(180 96.4707 890)" fill="url(#paint14_linear_141_86)"/>
<rect x="0.735352" y="890" width="95.7355" height="340.392" transform="rotate(180 0.735352 890)" fill="url(#paint15_linear_141_86)"/>
</g>
<defs>
<filter id="filter0_n_141_86" x="-95" y="0" width="1822.19" height="890" filterUnits="userSpaceOnUse" color-interpolation-filters="sRGB">
<feFlood flood-opacity="0" result="BackgroundImageFix"/>
<feBlend mode="normal" in="SourceGraphic" in2="BackgroundImageFix" result="shape"/>
<feTurbulence type="fractalNoise" baseFrequency="2 2" stitchTiles="stitch" numOctaves="3" result="noise" seed="5367" />
<feColorMatrix in="noise" type="luminanceToAlpha" result="alphaNoise" />
<feComponentTransfer in="alphaNoise" result="coloredNoise1">
<feFuncA type="discrete" tableValues="0 0 0 0 0 0 0 0 0 0 0 0 0 1 1 1 1 1 1 1 1 1 1 1 1 1 1 1 1 1 1 1 1 1 1 1 0 0 0 0 0 0 0 0 0 0 0 0 0 0 0 0 0 0 0 0 0 0 0 0 0 0 0 0 0 0 0 0 0 0 0 0 0 0 0 0 0 0 0 0 0 0 0 0 0 0 0 0 0 0 0 0 0 0 0 0 0 0 0 0 "/>
</feComponentTransfer>
<feComposite operator="in" in2="shape" in="coloredNoise1" result="noise1Clipped" />
<feFlood flood-color="rgba(0, 0, 0, 0.1)" result="color1Flood" />
<feComposite operator="in" in2="noise1Clipped" in="color1Flood" result="color1" />
<feMerge result="effect1_noise_141_86">
<feMergeNode in="shape" />
<feMergeNode in="color1" />
</feMerge>
</filter>
<linearGradient id="paint0_linear_141_86" x1="1395.14" y1="1358.25" x2="1395.14" y2="890" gradientUnits="userSpaceOnUse">
<stop stop-color="#DFE00D" stop-opacity="0"/>
<stop offset="0.9" stop-color="#25B8B6"/>
</linearGradient>
<linearGradient id="paint1_linear_141_86" x1="1202.66" y1="1263.6" x2="1202.66" y2="890" gradientUnits="userSpaceOnUse">
<stop stop-color="#DFE00D" stop-opacity="0"/>
<stop offset="0.9" stop-color="#25B8B6"/>
</linearGradient>
<linearGradient id="paint2_linear_141_86" x1="1299.91" y1="1310.09" x2="1299.91" y2="890" gradientUnits="userSpaceOnUse">
<stop stop-color="#DFE00D" stop-opacity="0"/>
<stop offset="0.9" stop-color="#25B8B6"/>
</linearGradient>
<linearGradient id="paint3_linear_141_86" x1="1490.87" y1="1436.29" x2="1490.87" y2="890" gradientUnits="userSpaceOnUse">
<stop stop-color="#DFE00D" stop-opacity="0"/>
<stop offset="0.9" stop-color="#25B8B6"/>
</linearGradient>
<linearGradient id="paint4_linear_141_86" x1="1106.92" y1="1223.75" x2="1106.92" y2="890" gradientUnits="userSpaceOnUse">
<stop stop-color="#DFE00D" stop-opacity="0"/>
<stop offset="0.9" stop-color="#25B8B6"/>
</linearGradient>
<linearGradient id="paint5_linear_141_86" x1="1011.69" y1="1243.68" x2="1011.69" y2="890" gradientUnits="userSpaceOnUse">
<stop stop-color="#DFE00D" stop-opacity="0"/>
<stop offset="0.9" stop-color="#25B8B6"/>
</linearGradient>
<linearGradient id="paint6_linear_141_86" x1="627.743" y1="1446.25" x2="627.743" y2="890" gradientUnits="userSpaceOnUse">
<stop stop-color="#DFE00D" stop-opacity="0"/>
<stop offset="0.9" stop-color="#25B8B6"/>
</linearGradient>
<linearGradient id="paint7_linear_141_86" x1="818.71" y1="1336.66" x2="818.71" y2="890" gradientUnits="userSpaceOnUse">
<stop stop-color="#DFE00D" stop-opacity="0"/>
<stop offset="0.9" stop-color="#25B8B6"/>
</linearGradient>
<linearGradient id="paint8_linear_141_86" x1="434.759" y1="1401.42" x2="434.759" y2="890" gradientUnits="userSpaceOnUse">
<stop stop-color="#DFE00D" stop-opacity="0"/>
<stop offset="0.9" stop-color="#25B8B6"/>
</linearGradient>
<linearGradient id="paint9_linear_141_86" x1="914.445" y1="1288.51" x2="914.445" y2="890" gradientUnits="userSpaceOnUse">
<stop stop-color="#DFE00D" stop-opacity="0"/>
<stop offset="0.9" stop-color="#25B8B6"/>
</linearGradient>
<linearGradient id="paint10_linear_141_86" x1="530.495" y1="1491.08" x2="530.495" y2="890" gradientUnits="userSpaceOnUse">
<stop stop-color="#DFE00D" stop-opacity="0"/>
<stop offset="0.9" stop-color="#25B8B6"/>
</linearGradient>
<linearGradient id="paint11_linear_141_86" x1="722.974" y1="1386.47" x2="722.974" y2="890" gradientUnits="userSpaceOnUse">
<stop stop-color="#DFE00D" stop-opacity="0"/>
<stop offset="0.9" stop-color="#25B8B6"/>
</linearGradient>
<linearGradient id="paint12_linear_141_86" x1="339.689" y1="1355" x2="339.689" y2="890" gradientUnits="userSpaceOnUse">
<stop stop-color="#DFE00D" stop-opacity="0"/>
<stop offset="0.9" stop-color="#25B8B6"/>
</linearGradient>
<linearGradient id="paint13_linear_141_86" x1="243.689" y1="1308" x2="243.689" y2="890" gradientUnits="userSpaceOnUse">
<stop stop-color="#DFE00D" stop-opacity="0"/>
<stop offset="0.9" stop-color="#25B8B6"/>
</linearGradient>
<linearGradient id="paint14_linear_141_86" x1="144.338" y1="1265.26" x2="144.338" y2="890" gradientUnits="userSpaceOnUse">
<stop stop-color="#DFE00D" stop-opacity="0"/>
<stop offset="0.9" stop-color="#25B8B6"/>
</linearGradient>
<linearGradient id="paint15_linear_141_86" x1="48.6031" y1="1230.39" x2="48.6031" y2="890" gradientUnits="userSpaceOnUse">
<stop stop-color="#DFE00D" stop-opacity="0"/>
<stop offset="0.9" stop-color="#25B8B6"/>
</linearGradient>
</defs>
</svg>
