<svg width="1440" height="957" viewBox="0 0 1440 957" fill="none" xmlns="http://www.w3.org/2000/svg">
<g opacity="0.6" filter="url(#filter0_n_154_435)">
<rect x="1347.27" y="890" width="95.7355" height="468.246" transform="rotate(180 1347.27 890)" fill="url(#paint0_linear_154_435)"/>
<rect x="1154.79" y="890" width="95.7355" height="373.601" transform="rotate(180 1154.79 890)" fill="url(#paint1_linear_154_435)"/>
<rect x="1251.54" y="890" width="96.7433" height="420.093" transform="rotate(180 1251.54 890)" fill="url(#paint2_linear_154_435)"/>
<rect x="1443.01" y="890" width="95.7355" height="546.287" transform="rotate(180 1443.01 890)" fill="url(#paint3_linear_154_435)"/>
<rect x="1059.06" y="890" width="95.7355" height="333.75" transform="rotate(180 1059.06 890)" fill="url(#paint4_linear_154_435)"/>
<rect x="963.32" y="890" width="96.7433" height="353.675" transform="rotate(180 963.32 890)" fill="url(#paint5_linear_154_435)"/>
<rect x="579.371" y="890" width="96.7433" height="556.25" transform="rotate(180 579.371 890)" fill="url(#paint6_linear_154_435)"/>
<rect x="770.842" y="890" width="95.7355" height="446.66" transform="rotate(180 770.842 890)" fill="url(#paint7_linear_154_435)"/>
<rect x="386.892" y="890" width="95.7355" height="511.418" transform="rotate(180 386.892 890)" fill="url(#paint8_linear_154_435)"/>
<rect x="866.577" y="890" width="95.7355" height="398.507" transform="rotate(180 866.577 890)" fill="url(#paint9_linear_154_435)"/>
<rect x="482.627" y="890" width="95.7355" height="601.082" transform="rotate(180 482.627 890)" fill="url(#paint10_linear_154_435)"/>
<rect x="675.106" y="890" width="95.7355" height="496.474" transform="rotate(180 675.106 890)" fill="url(#paint11_linear_154_435)"/>
<rect x="291.189" y="890" width="97" height="465" transform="rotate(180 291.189 890)" fill="url(#paint12_linear_154_435)"/>
<rect x="194.189" y="890" width="99" height="418" transform="rotate(180 194.189 890)" fill="url(#paint13_linear_154_435)"/>
<rect x="96.4707" y="890" width="95.7355" height="375.261" transform="rotate(180 96.4707 890)" fill="url(#paint14_linear_154_435)"/>
<rect x="0.735352" y="890" width="95.7355" height="340.392" transform="rotate(180 0.735352 890)" fill="url(#paint15_linear_154_435)"/>
</g>
<g filter="url(#filter1_g_154_435)">
<path d="M1317.64 371.496C1315.89 380.214 1316.86 392.998 1320.03 403.042C1320.66 405.058 1320.74 405.528 1320.43 405.834C1320.11 406.162 1305.17 417.975 1302.42 420.078C1301.9 420.48 1301.51 420.879 1301.53 420.938C1301.56 421.02 1306.84 420.02 1313.26 418.717C1319.69 417.443 1325.18 416.369 1325.49 416.334C1325.95 416.303 1326.26 416.634 1327.47 418.417C1333.4 427.192 1342.9 436.047 1350.91 440.27C1352.6 441.145 1353.24 441.793 1352 441.348C1351.07 441.014 1346.99 440.459 1343.79 440.244C1335.97 439.693 1326.62 440.73 1318.96 442.965C1317.49 443.391 1316.19 443.713 1316.08 443.673C1315.99 443.642 1313.02 440.074 1309.49 435.765C1300.9 425.224 1300.34 424.535 1300.22 424.59C1300.16 424.617 1301.24 429.837 1302.64 436.178C1304.04 442.541 1305.19 447.982 1305.2 448.283C1305.26 448.746 1305.03 448.981 1303.83 449.752C1294.61 455.572 1285.61 464.831 1281.21 473.064C1280.36 474.672 1279.72 475.254 1280.15 474.059C1280.48 473.146 1280.99 469.135 1281.17 466.008C1281.65 457.964 1280.36 448.252 1277.79 440.435C1277.52 439.579 1277.31 438.768 1277.35 438.659C1277.39 438.55 1281.74 435.058 1287 430.912C1292.28 426.743 1296.58 423.308 1296.55 423.249C1296.53 423.19 1291.07 424.25 1284.42 425.569C1277.79 426.896 1272.26 427.954 1272.15 427.914C1272.04 427.874 1271.53 427.201 1271.02 426.455C1266.47 419.549 1259.61 412.401 1252.94 407.652C1250.35 405.793 1246.85 403.63 1245.92 403.296C1244.71 402.859 1245.57 402.752 1247.38 403.133C1256.39 404.991 1269.67 404.16 1279.56 401.132C1281.52 400.537 1281.92 400.482 1282.24 400.821C1282.47 401.025 1286.05 405.349 1290.2 410.444C1294.32 415.53 1297.77 419.661 1297.83 419.633C1297.94 419.6 1297.75 418.672 1294.5 403.818C1293.54 399.377 1292.78 395.645 1292.81 395.558C1292.85 395.45 1293.95 394.668 1295.23 393.826C1299.96 390.74 1305.76 385.679 1309.68 381.224C1312.56 377.939 1316.85 371.773 1317.48 369.991C1317.92 368.774 1318.02 369.67 1317.64 371.496Z" fill="url(#paint16_linear_154_435)" fill-opacity="0.95"/>
</g>
<g opacity="0.75" filter="url(#filter2_gf_154_435)">
<path d="M1088.11 829.826C1109.48 818.393 1143.58 810.847 1172.28 811.219C1178.04 811.268 1179.33 811.109 1179.88 810.061C1180.49 808.974 1199.54 760.703 1202.86 751.861C1203.5 750.189 1204.23 748.85 1204.41 748.878C1204.63 748.869 1206.19 763.44 1207.84 781.211C1209.58 798.996 1211.1 814.153 1211.25 814.996C1211.54 816.223 1212.64 816.762 1218.25 818.516C1245.8 827.075 1276.38 844.89 1293.71 862.465C1297.32 866.176 1299.51 867.344 1297.37 864.457C1295.77 862.293 1291.11 852.095 1288.03 843.92C1280.43 823.932 1275.78 798.727 1275.58 777.004C1275.53 772.812 1275.36 769.192 1275.17 768.934C1275.01 768.728 1263.37 763.787 1249.35 757.969C1215.08 743.843 1212.85 742.943 1212.9 742.587C1212.93 742.409 1227.39 741.113 1245.03 739.775C1262.73 738.401 1277.83 737.114 1278.63 736.923C1279.88 736.712 1280.31 735.916 1281.37 732.174C1289.3 703.556 1306.37 672.795 1324.38 654.827C1327.91 651.339 1328.93 649.227 1326.14 651.287C1324.02 652.86 1313.96 657.356 1305.94 660.266C1285.34 667.864 1258.99 672.139 1236.57 671.582C1234.13 671.558 1231.85 671.651 1231.59 671.838C1231.34 672.025 1225.66 686.13 1218.98 703.124C1212.26 720.156 1206.69 734.097 1206.51 734.069C1206.34 734.041 1204.81 718.973 1203.01 700.589C1201.26 682.256 1199.66 666.996 1199.47 666.738C1199.28 666.481 1197.12 665.684 1194.78 664.947C1173.18 658.517 1149.13 646.241 1131.49 632.572C1124.61 627.295 1116.21 619.868 1114.61 617.703C1112.51 614.869 1112.91 617.206 1115.33 621.638C1127.27 643.68 1135.55 678.965 1135.44 707.142C1135.43 712.734 1135.6 713.807 1136.74 714.398C1137.45 714.829 1151.55 720.75 1168.1 727.562C1184.62 734.323 1198.11 740.056 1198.08 740.234C1198.08 740.553 1195.51 740.781 1154.21 744.001C1141.87 744.998 1131.53 745.95 1131.33 746.099C1131.08 746.287 1129.91 749.785 1128.72 753.78C1124.4 768.555 1115.75 787.647 1107.22 801.39C1100.92 811.485 1088.21 827.522 1084.06 830.593C1081.23 832.69 1083.65 832.255 1088.11 829.826Z" fill="url(#paint17_linear_154_435)" fill-opacity="0.95"/>
</g>
<g filter="url(#filter3_g_154_435)">
<path d="M826.395 275.907C836.608 280.394 849.047 290.521 857.084 300.9C858.704 302.974 859.129 303.392 859.666 303.301C860.231 303.217 883.093 296.687 887.232 295.429C888.018 295.196 888.71 295.087 888.75 295.159C888.818 295.238 883.997 299.825 878.049 305.332C872.12 310.875 867.078 315.612 866.817 315.9C866.454 316.341 866.574 316.885 867.536 319.378C872.292 331.614 874.564 347.491 873.149 358.556C872.836 360.876 873.04 361.985 873.474 360.421C873.799 359.248 876.157 354.76 878.233 351.396C883.288 343.145 891.068 334.506 898.859 328.427C900.358 327.249 901.616 326.185 901.655 326.045C901.686 325.933 900.154 320.396 898.264 313.767C893.609 297.589 893.299 296.541 893.441 296.46C893.513 296.42 898.1 301.241 903.607 307.189C909.143 313.146 913.907 318.196 914.203 318.429C914.636 318.82 915.045 318.753 916.7 318.099C929.296 313.022 945.268 310.626 956.887 312.105C959.151 312.402 960.204 312.183 958.668 311.757C957.495 311.431 953.006 309.074 949.671 307.005C941.059 301.73 932.011 293.476 925.83 285.295C925.142 284.413 924.46 283.622 924.32 283.583C924.18 283.545 917.467 285.412 909.428 287.723C901.361 290.026 894.74 291.888 894.699 291.817C894.659 291.746 899.666 287.03 905.796 281.302C911.918 275.602 916.977 270.81 917.015 270.67C917.054 270.531 916.728 269.538 916.326 268.494C912.499 258.982 910.085 246.975 910 236.877C909.945 232.952 910.237 227.89 910.562 226.717C910.988 225.182 910.258 225.971 909.346 228.064C904.785 238.437 894.398 251.164 884.187 258.918C882.165 260.462 881.826 260.819 881.937 261.391C881.984 261.765 883.859 268.45 886.112 276.263C888.374 284.048 890.143 290.463 890.072 290.503C889.957 290.592 889.142 289.734 876.217 275.834C872.344 271.692 869.057 268.254 868.945 268.223C868.806 268.184 867.21 268.734 865.428 269.412C858.859 271.951 849.501 274.137 842.107 274.882C836.665 275.418 827.254 275.303 824.964 274.668C823.401 274.234 824.246 274.98 826.395 275.907Z" fill="url(#paint18_linear_154_435)"/>
</g>
<g filter="url(#filter4_g_154_435)">
<path d="M654.575 632.984C647.536 651.665 644.927 680.249 648.148 703.52C648.774 708.187 648.777 709.255 647.988 709.827C647.174 710.444 610.212 731.523 603.425 735.243C602.143 735.957 601.138 736.706 601.179 736.847C601.194 737.034 613.096 736.606 627.585 735.887C642.095 735.239 654.464 734.713 655.159 734.741C656.177 734.829 656.724 735.663 658.708 740.013C668.411 761.409 685.881 784.183 701.808 796.218C705.167 798.721 706.331 800.369 703.787 798.967C701.88 797.916 693.187 795.316 686.286 793.762C669.404 789.905 648.618 789.048 631.091 791.409C627.708 791.854 624.772 792.131 624.545 792.006C624.364 791.905 619.196 783.017 613.08 772.304C598.208 746.105 597.255 744.396 596.973 744.478C596.832 744.518 597.26 756.42 597.979 770.909C598.673 785.444 599.173 797.858 599.1 798.529C599.058 799.571 598.46 800.012 595.553 801.311C573.296 811.072 550.245 828.508 537.597 845.223C535.145 848.49 533.547 849.564 534.924 847.066C535.975 845.158 538.575 836.465 540.104 829.61C544.13 811.992 544.892 790.088 542.161 771.943C541.893 769.959 541.735 768.096 541.86 767.869C541.986 767.642 552.774 761.39 565.79 753.997C578.832 746.558 589.5 740.418 589.459 740.277C589.418 740.136 577.119 740.641 562.121 741.316C547.168 742.016 534.708 742.491 534.481 742.366C534.254 742.241 533.392 740.581 532.56 738.761C525.179 721.962 512.838 703.849 500.026 691.103C495.072 686.123 488.232 680.162 486.325 679.111C483.827 677.734 485.751 677.788 489.569 679.241C508.548 686.385 537.827 689.022 560.523 685.661C565.029 685.006 565.911 685.018 566.503 685.878C566.923 686.405 573.129 697.169 580.305 709.828C587.434 722.462 593.428 732.753 593.569 732.712C593.826 732.676 593.748 730.561 592.138 696.631C591.686 686.493 591.4 677.986 591.5 677.805C591.625 677.578 594.326 676.224 597.424 674.793C608.891 669.566 623.397 660.329 633.603 651.802C641.098 645.511 652.728 633.327 654.78 629.603C656.182 627.06 656.078 629.075 654.575 632.984Z" fill="url(#paint19_linear_154_435)"/>
</g>
<g filter="url(#filter5_g_154_435)">
<path d="M1310.27 439.954C1325.89 458.044 1354.77 477.278 1381.56 487.407C1386.91 489.46 1388.06 490.074 1388.18 491.221C1388.34 492.42 1388.24 542.852 1388.06 552.025C1388.04 553.765 1388.22 555.238 1388.4 555.277C1388.6 555.369 1395.42 542.809 1403.51 527.404C1411.68 512.019 1418.68 498.919 1419.13 498.216C1419.85 497.213 1421.07 497.13 1426.92 497.594C1455.67 499.933 1490.63 495.035 1513.19 485.52C1517.91 483.494 1520.38 483.243 1517.33 485.063C1515.05 486.429 1506.96 493.917 1501.09 500.158C1486.66 515.391 1473.05 536.399 1464.86 555.896C1463.26 559.653 1461.76 562.85 1461.49 563.013C1461.27 563.143 1448.64 563.347 1433.48 563.477C1396.45 563.706 1394.05 563.703 1393.96 564.042C1393.92 564.211 1406.87 570.653 1422.76 578.292C1438.69 585.982 1452.23 592.647 1452.9 593.11C1453.99 593.757 1454.09 594.63 1453.7 598.389C1450.51 627.06 1455.02 660.993 1465.12 683.747C1467.1 688.174 1467.27 690.448 1465.45 687.578C1464.06 685.387 1456.37 677.669 1450 672.122C1433.67 657.765 1410.78 644.305 1389.76 636.634C1387.48 635.764 1385.4 634.849 1385.23 634.588C1385.07 634.327 1384.99 619.55 1385.06 601.808C1385.1 584.013 1385.07 569.425 1384.89 569.385C1384.72 569.346 1377.74 582.362 1369.3 598.268C1360.91 614.142 1353.8 627.307 1353.53 627.469C1353.26 627.632 1350.96 627.564 1348.51 627.371C1326.09 625.288 1299.23 627.578 1277.81 633.459C1269.48 635.702 1258.94 639.33 1256.65 640.695C1253.66 642.483 1254.89 640.523 1258.77 637.414C1277.99 621.913 1298.69 593.148 1308.97 567.725C1311.03 562.685 1311.58 561.78 1312.86 561.664C1313.68 561.535 1328.95 561.341 1346.83 561.241C1364.66 561.174 1379.29 560.927 1379.34 560.758C1379.46 560.471 1377.15 559.328 1339.99 541.366C1328.9 535.969 1319.65 531.343 1319.52 531.134C1319.36 530.874 1319.56 527.297 1319.93 523.264C1321.36 508.378 1320.38 488.028 1317.52 472.536C1315.39 461.144 1309.5 442.064 1306.79 437.786C1304.93 434.865 1307.02 436.138 1310.27 439.954Z" fill="url(#paint20_linear_154_435)" fill-opacity="0.95"/>
</g>
<defs>
<filter id="filter0_n_154_435" x="-95" y="0" width="1822.19" height="890" filterUnits="userSpaceOnUse" color-interpolation-filters="sRGB">
<feFlood flood-opacity="0" result="BackgroundImageFix"/>
<feBlend mode="normal" in="SourceGraphic" in2="BackgroundImageFix" result="shape"/>
<feTurbulence type="fractalNoise" baseFrequency="2 2" stitchTiles="stitch" numOctaves="3" result="noise" seed="5367" />
<feColorMatrix in="noise" type="luminanceToAlpha" result="alphaNoise" />
<feComponentTransfer in="alphaNoise" result="coloredNoise1">
<feFuncA type="discrete" tableValues="0 0 0 0 0 0 0 0 0 0 0 0 0 1 1 1 1 1 1 1 1 1 1 1 1 1 1 1 1 1 1 1 1 1 1 1 0 0 0 0 0 0 0 0 0 0 0 0 0 0 0 0 0 0 0 0 0 0 0 0 0 0 0 0 0 0 0 0 0 0 0 0 0 0 0 0 0 0 0 0 0 0 0 0 0 0 0 0 0 0 0 0 0 0 0 0 0 0 0 0 "/>
</feComponentTransfer>
<feComposite operator="in" in2="shape" in="coloredNoise1" result="noise1Clipped" />
<feFlood flood-color="rgba(0, 0, 0, 0.1)" result="color1Flood" />
<feComposite operator="in" in2="noise1Clipped" in="color1Flood" result="color1" />
<feMerge result="effect1_noise_154_435">
<feMergeNode in="shape" />
<feMergeNode in="color1" />
</feMerge>
</filter>
<filter id="filter1_g_154_435" x="1243.36" y="367.434" width="111.29" height="109.26" filterUnits="userSpaceOnUse" color-interpolation-filters="sRGB">
<feFlood flood-opacity="0" result="BackgroundImageFix"/>
<feBlend mode="normal" in="SourceGraphic" in2="BackgroundImageFix" result="shape"/>
<feTurbulence type="fractalNoise" baseFrequency="0.29888087511062622 0.29888087511062622" numOctaves="3" seed="3604" />
<feDisplacementMap in="shape" scale="4" xChannelSelector="R" yChannelSelector="G" result="displacedImage" width="100%" height="100%" />
<feMerge result="effect1_texture_154_435">
<feMergeNode in="displacedImage"/>
</feMerge>
</filter>
<filter id="filter2_gf_154_435" x="1080.84" y="614.465" width="248.896" height="253.609" filterUnits="userSpaceOnUse" color-interpolation-filters="sRGB">
<feFlood flood-opacity="0" result="BackgroundImageFix"/>
<feBlend mode="normal" in="SourceGraphic" in2="BackgroundImageFix" result="shape"/>
<feTurbulence type="fractalNoise" baseFrequency="0.29888087511062622 0.29888087511062622" numOctaves="3" seed="3604" />
<feDisplacementMap in="shape" scale="4" xChannelSelector="R" yChannelSelector="G" result="displacedImage" width="100%" height="100%" />
<feMerge result="effect1_texture_154_435">
<feMergeNode in="displacedImage"/>
</feMerge>
<feGaussianBlur stdDeviation="1" result="effect2_foregroundBlur_154_435"/>
</filter>
<filter id="filter3_g_154_435" x="821.995" y="223.751" width="139.562" height="139.562" filterUnits="userSpaceOnUse" color-interpolation-filters="sRGB">
<feFlood flood-opacity="0" result="BackgroundImageFix"/>
<feBlend mode="normal" in="SourceGraphic" in2="BackgroundImageFix" result="shape"/>
<feTurbulence type="fractalNoise" baseFrequency="0.46196508407592773 0.46196508407592773" numOctaves="3" seed="3604" />
<feDisplacementMap in="shape" scale="4.3293313980102539" xChannelSelector="R" yChannelSelector="G" result="displacedImage" width="100%" height="100%" />
<feMerge result="effect1_texture_154_435">
<feMergeNode in="displacedImage"/>
</feMerge>
</filter>
<filter id="filter4_g_154_435" x="479.161" y="622.433" width="232.043" height="232.049" filterUnits="userSpaceOnUse" color-interpolation-filters="sRGB">
<feFlood flood-opacity="0" result="BackgroundImageFix"/>
<feBlend mode="normal" in="SourceGraphic" in2="BackgroundImageFix" result="shape"/>
<feTurbulence type="fractalNoise" baseFrequency="0.16556468605995178 0.16556468605995178" numOctaves="3" seed="3604" />
<feDisplacementMap in="shape" scale="12.079870223999023" xChannelSelector="R" yChannelSelector="G" result="displacedImage" width="100%" height="100%" />
<feMerge result="effect1_texture_154_435">
<feMergeNode in="displacedImage"/>
</feMerge>
</filter>
<filter id="filter5_g_154_435" x="1251.44" y="432.634" width="270.786" height="259.767" filterUnits="userSpaceOnUse" color-interpolation-filters="sRGB">
<feFlood flood-opacity="0" result="BackgroundImageFix"/>
<feBlend mode="normal" in="SourceGraphic" in2="BackgroundImageFix" result="shape"/>
<feTurbulence type="fractalNoise" baseFrequency="0.28190040588378906 0.28190040588378906" numOctaves="3" seed="3604" />
<feDisplacementMap in="shape" scale="7.0947041511535645" xChannelSelector="R" yChannelSelector="G" result="displacedImage" width="100%" height="100%" />
<feMerge result="effect1_texture_154_435">
<feMergeNode in="displacedImage"/>
</feMerge>
</filter>
<linearGradient id="paint0_linear_154_435" x1="1395.14" y1="1358.25" x2="1395.14" y2="890" gradientUnits="userSpaceOnUse">
<stop stop-color="#DFE00D" stop-opacity="0"/>
<stop offset="0.9" stop-color="#25B8B6"/>
</linearGradient>
<linearGradient id="paint1_linear_154_435" x1="1202.66" y1="1263.6" x2="1202.66" y2="890" gradientUnits="userSpaceOnUse">
<stop stop-color="#DFE00D" stop-opacity="0"/>
<stop offset="0.9" stop-color="#25B8B6"/>
</linearGradient>
<linearGradient id="paint2_linear_154_435" x1="1299.91" y1="1310.09" x2="1299.91" y2="890" gradientUnits="userSpaceOnUse">
<stop stop-color="#DFE00D" stop-opacity="0"/>
<stop offset="0.9" stop-color="#25B8B6"/>
</linearGradient>
<linearGradient id="paint3_linear_154_435" x1="1490.87" y1="1436.29" x2="1490.87" y2="890" gradientUnits="userSpaceOnUse">
<stop stop-color="#DFE00D" stop-opacity="0"/>
<stop offset="0.9" stop-color="#25B8B6"/>
</linearGradient>
<linearGradient id="paint4_linear_154_435" x1="1106.92" y1="1223.75" x2="1106.92" y2="890" gradientUnits="userSpaceOnUse">
<stop stop-color="#DFE00D" stop-opacity="0"/>
<stop offset="0.9" stop-color="#25B8B6"/>
</linearGradient>
<linearGradient id="paint5_linear_154_435" x1="1011.69" y1="1243.68" x2="1011.69" y2="890" gradientUnits="userSpaceOnUse">
<stop stop-color="#DFE00D" stop-opacity="0"/>
<stop offset="0.9" stop-color="#25B8B6"/>
</linearGradient>
<linearGradient id="paint6_linear_154_435" x1="627.743" y1="1446.25" x2="627.743" y2="890" gradientUnits="userSpaceOnUse">
<stop stop-color="#DFE00D" stop-opacity="0"/>
<stop offset="0.9" stop-color="#25B8B6"/>
</linearGradient>
<linearGradient id="paint7_linear_154_435" x1="818.71" y1="1336.66" x2="818.71" y2="890" gradientUnits="userSpaceOnUse">
<stop stop-color="#DFE00D" stop-opacity="0"/>
<stop offset="0.9" stop-color="#25B8B6"/>
</linearGradient>
<linearGradient id="paint8_linear_154_435" x1="434.759" y1="1401.42" x2="434.759" y2="890" gradientUnits="userSpaceOnUse">
<stop stop-color="#DFE00D" stop-opacity="0"/>
<stop offset="0.9" stop-color="#25B8B6"/>
</linearGradient>
<linearGradient id="paint9_linear_154_435" x1="914.445" y1="1288.51" x2="914.445" y2="890" gradientUnits="userSpaceOnUse">
<stop stop-color="#DFE00D" stop-opacity="0"/>
<stop offset="0.9" stop-color="#25B8B6"/>
</linearGradient>
<linearGradient id="paint10_linear_154_435" x1="530.495" y1="1491.08" x2="530.495" y2="890" gradientUnits="userSpaceOnUse">
<stop stop-color="#DFE00D" stop-opacity="0"/>
<stop offset="0.9" stop-color="#25B8B6"/>
</linearGradient>
<linearGradient id="paint11_linear_154_435" x1="722.974" y1="1386.47" x2="722.974" y2="890" gradientUnits="userSpaceOnUse">
<stop stop-color="#DFE00D" stop-opacity="0"/>
<stop offset="0.9" stop-color="#25B8B6"/>
</linearGradient>
<linearGradient id="paint12_linear_154_435" x1="339.689" y1="1355" x2="339.689" y2="890" gradientUnits="userSpaceOnUse">
<stop stop-color="#DFE00D" stop-opacity="0"/>
<stop offset="0.9" stop-color="#25B8B6"/>
</linearGradient>
<linearGradient id="paint13_linear_154_435" x1="243.689" y1="1308" x2="243.689" y2="890" gradientUnits="userSpaceOnUse">
<stop stop-color="#DFE00D" stop-opacity="0"/>
<stop offset="0.9" stop-color="#25B8B6"/>
</linearGradient>
<linearGradient id="paint14_linear_154_435" x1="144.338" y1="1265.26" x2="144.338" y2="890" gradientUnits="userSpaceOnUse">
<stop stop-color="#DFE00D" stop-opacity="0"/>
<stop offset="0.9" stop-color="#25B8B6"/>
</linearGradient>
<linearGradient id="paint15_linear_154_435" x1="48.6031" y1="1230.39" x2="48.6031" y2="890" gradientUnits="userSpaceOnUse">
<stop stop-color="#DFE00D" stop-opacity="0"/>
<stop offset="0.9" stop-color="#25B8B6"/>
</linearGradient>
<linearGradient id="paint16_linear_154_435" x1="1317.92" y1="369.476" x2="1280.16" y2="474.732" gradientUnits="userSpaceOnUse">
<stop offset="0.195862" stop-color="#25B8B6"/>
<stop offset="0.667296" stop-color="#DFE00D" stop-opacity="0.65"/>
<stop offset="1" stop-color="#DFE00D" stop-opacity="0"/>
</linearGradient>
<linearGradient id="paint17_linear_154_435" x1="1083.06" y1="832.136" x2="1327.91" y2="650.783" gradientUnits="userSpaceOnUse">
<stop offset="0.195862" stop-color="#25B8B6"/>
<stop offset="0.667296" stop-color="#DFE00D" stop-opacity="0.65"/>
<stop offset="1" stop-color="#DFE00D" stop-opacity="0"/>
</linearGradient>
<linearGradient id="paint18_linear_154_435" x1="824.122" y1="274.737" x2="959.352" y2="312.249" gradientUnits="userSpaceOnUse">
<stop stop-color="#DFE00D" stop-opacity="0"/>
<stop offset="1" stop-color="#DFE00D"/>
</linearGradient>
<linearGradient id="paint19_linear_154_435" x1="655.922" y1="628.611" x2="539.112" y2="738.639" gradientUnits="userSpaceOnUse">
<stop stop-color="#DFE00D"/>
<stop offset="1" stop-color="#25B8B6" stop-opacity="0"/>
</linearGradient>
<linearGradient id="paint20_linear_154_435" x1="1306.43" y1="436.032" x2="1459.79" y2="692.917" gradientUnits="userSpaceOnUse">
<stop stop-color="#DFE00D"/>
<stop offset="0.610577" stop-color="#DFE00D" stop-opacity="0.65"/>
<stop offset="1" stop-color="#DFE00D" stop-opacity="0"/>
</linearGradient>
</defs>
</svg>
