<svg width="1440" height="460" viewBox="0 0 1440 460" fill="none" xmlns="http://www.w3.org/2000/svg">
<g opacity="0.65">
<rect x="1440" y="459" width="86" height="459" transform="rotate(180 1440 459)" fill="url(#paint0_linear_8_60)"/>
<rect x="1083.06" y="459.15" width="90" height="373.365" transform="rotate(180 1083.06 459.15)" fill="url(#paint1_linear_8_60)"/>
<rect x="1263.5" y="459.15" width="90.25" height="384.987" transform="rotate(180 1263.5 459.15)" fill="url(#paint2_linear_8_60)"/>
<rect x="902.999" y="459.029" width="91" height="327.301" transform="rotate(180 902.999 459.029)" fill="url(#paint3_linear_8_60)"/>
<rect x="1354.19" y="459.15" width="91" height="420.238" transform="rotate(180 1354.19 459.15)" fill="url(#paint4_linear_8_60)"/>
<rect x="993.062" y="459.15" width="90" height="350.737" transform="rotate(180 993.062 459.15)" fill="url(#paint5_linear_8_60)"/>
<rect x="1173.19" y="459.15" width="90" height="400.034" transform="rotate(180 1173.19 459.15)" fill="url(#paint6_linear_8_60)"/>
<rect x="811.999" y="459.029" width="90" height="348.312" transform="rotate(180 811.999 459.029)" fill="url(#paint7_linear_8_60)"/>
<rect x="722.062" y="459.15" width="90" height="366.092" transform="rotate(180 722.062 459.15)" fill="url(#paint8_linear_8_60)"/>
<rect x="361.124" y="459.15" width="90" height="390.546" transform="rotate(180 361.124 459.15)" fill="url(#paint9_linear_8_60)"/>
<rect x="541.124" y="459.15" width="90" height="312.943" transform="rotate(180 541.124 459.15)" fill="url(#paint10_linear_8_60)"/>
<rect x="180.124" y="459.15" width="90" height="358.493" transform="rotate(180 180.124 459.15)" fill="url(#paint11_linear_8_60)"/>
<rect x="631.999" y="459.029" width="91" height="358.01" transform="rotate(180 631.999 459.029)" fill="url(#paint12_linear_8_60)"/>
<rect x="271.124" y="459.15" width="91" height="421.756" transform="rotate(180 271.124 459.15)" fill="url(#paint13_linear_8_60)"/>
<rect x="451.124" y="459.15" width="90" height="348.37" transform="rotate(180 451.124 459.15)" fill="url(#paint14_linear_8_60)"/>
<rect x="90.124" y="459.15" width="90" height="326.439" transform="rotate(180 90.124 459.15)" fill="url(#paint15_linear_8_60)"/>
</g>
<defs>
<linearGradient id="paint0_linear_8_60" x1="1483" y1="918" x2="1483" y2="459" gradientUnits="userSpaceOnUse">
<stop stop-color="#DFE00D" stop-opacity="0"/>
<stop offset="0.9" stop-color="#25B8B6"/>
</linearGradient>
<linearGradient id="paint1_linear_8_60" x1="1128.06" y1="832.515" x2="1128.06" y2="459.15" gradientUnits="userSpaceOnUse">
<stop stop-color="#DFE00D" stop-opacity="0"/>
<stop offset="0.9" stop-color="#25B8B6"/>
</linearGradient>
<linearGradient id="paint2_linear_8_60" x1="1308.62" y1="844.138" x2="1308.62" y2="459.15" gradientUnits="userSpaceOnUse">
<stop stop-color="#DFE00D" stop-opacity="0"/>
<stop offset="0.9" stop-color="#25B8B6"/>
</linearGradient>
<linearGradient id="paint3_linear_8_60" x1="948.499" y1="786.33" x2="948.499" y2="459.029" gradientUnits="userSpaceOnUse">
<stop stop-color="#DFE00D" stop-opacity="0"/>
<stop offset="0.9" stop-color="#25B8B6"/>
</linearGradient>
<linearGradient id="paint4_linear_8_60" x1="1399.69" y1="879.388" x2="1399.69" y2="459.15" gradientUnits="userSpaceOnUse">
<stop stop-color="#DFE00D" stop-opacity="0"/>
<stop offset="0.9" stop-color="#25B8B6"/>
</linearGradient>
<linearGradient id="paint5_linear_8_60" x1="1038.06" y1="809.887" x2="1038.06" y2="459.15" gradientUnits="userSpaceOnUse">
<stop stop-color="#DFE00D" stop-opacity="0"/>
<stop offset="0.9" stop-color="#25B8B6"/>
</linearGradient>
<linearGradient id="paint6_linear_8_60" x1="1218.19" y1="859.184" x2="1218.19" y2="459.15" gradientUnits="userSpaceOnUse">
<stop stop-color="#DFE00D" stop-opacity="0"/>
<stop offset="0.9" stop-color="#25B8B6"/>
</linearGradient>
<linearGradient id="paint7_linear_8_60" x1="856.999" y1="807.342" x2="856.999" y2="459.029" gradientUnits="userSpaceOnUse">
<stop stop-color="#DFE00D" stop-opacity="0"/>
<stop offset="0.9" stop-color="#25B8B6"/>
</linearGradient>
<linearGradient id="paint8_linear_8_60" x1="767.062" y1="825.242" x2="767.062" y2="459.15" gradientUnits="userSpaceOnUse">
<stop stop-color="#DFE00D" stop-opacity="0"/>
<stop offset="0.9" stop-color="#25B8B6"/>
</linearGradient>
<linearGradient id="paint9_linear_8_60" x1="406.124" y1="849.696" x2="406.124" y2="459.15" gradientUnits="userSpaceOnUse">
<stop stop-color="#DFE00D" stop-opacity="0"/>
<stop offset="0.9" stop-color="#25B8B6"/>
</linearGradient>
<linearGradient id="paint10_linear_8_60" x1="586.124" y1="772.093" x2="586.124" y2="459.15" gradientUnits="userSpaceOnUse">
<stop stop-color="#DFE00D" stop-opacity="0"/>
<stop offset="0.9" stop-color="#25B8B6"/>
</linearGradient>
<linearGradient id="paint11_linear_8_60" x1="225.124" y1="817.643" x2="225.124" y2="459.15" gradientUnits="userSpaceOnUse">
<stop stop-color="#DFE00D" stop-opacity="0"/>
<stop offset="0.9" stop-color="#25B8B6"/>
</linearGradient>
<linearGradient id="paint12_linear_8_60" x1="677.499" y1="817.039" x2="677.499" y2="459.029" gradientUnits="userSpaceOnUse">
<stop stop-color="#DFE00D" stop-opacity="0"/>
<stop offset="0.9" stop-color="#25B8B6"/>
</linearGradient>
<linearGradient id="paint13_linear_8_60" x1="316.624" y1="880.906" x2="316.624" y2="459.15" gradientUnits="userSpaceOnUse">
<stop stop-color="#DFE00D" stop-opacity="0"/>
<stop offset="0.9" stop-color="#25B8B6"/>
</linearGradient>
<linearGradient id="paint14_linear_8_60" x1="496.124" y1="807.521" x2="496.124" y2="459.15" gradientUnits="userSpaceOnUse">
<stop stop-color="#DFE00D" stop-opacity="0"/>
<stop offset="0.9" stop-color="#25B8B6"/>
</linearGradient>
<linearGradient id="paint15_linear_8_60" x1="135.124" y1="785.59" x2="135.124" y2="459.15" gradientUnits="userSpaceOnUse">
<stop stop-color="#DFE00D" stop-opacity="0"/>
<stop offset="0.9" stop-color="#25B8B6"/>
</linearGradient>
</defs>
</svg>
