<svg width="19" height="18" viewBox="0 0 19 18" fill="none" xmlns="http://www.w3.org/2000/svg">
<path d="M17.6 0H1.4C1.16131 0 0.932387 0.0948211 0.763604 0.263604C0.594821 0.432387 0.5 0.661305 0.5 0.9V17.1C0.5 17.3387 0.594821 17.5676 0.763604 17.7364C0.932387 17.9052 1.16131 18 1.4 18H17.6C17.8387 18 18.0676 17.9052 18.2364 17.7364C18.4052 17.5676 18.5 17.3387 18.5 17.1V0.9C18.5 0.661305 18.4052 0.432387 18.2364 0.263604C18.0676 0.0948211 17.8387 0 17.6 0ZM14.6471 7.8525C14.549 7.86209 14.4505 7.86719 14.3519 7.8678C13.8179 7.86849 13.2922 7.73613 12.8222 7.48268C12.3522 7.22922 11.9528 6.86265 11.66 6.4161V11.3598C11.6602 12.0827 11.446 12.7895 11.0444 13.3907C10.6429 13.9919 10.0721 14.4605 9.40419 14.7372C8.7363 15.014 8.00135 15.0864 7.29228 14.9454C6.58322 14.8044 5.9319 14.4563 5.4207 13.9451C4.90949 13.4339 4.56138 12.7826 4.42038 12.0735C4.27939 11.3644 4.35184 10.6295 4.62858 9.96161C4.90533 9.29373 5.37392 8.72292 5.97511 8.32139C6.57629 7.91985 7.28305 7.70562 8.006 7.7058C8.0825 7.7058 8.1563 7.713 8.2319 7.7175V9.5175C7.9801 9.487 7.72472 9.50831 7.48146 9.58013C7.23819 9.65195 7.01219 9.77276 6.81732 9.93513C6.62246 10.0975 6.46287 10.298 6.34834 10.5243C6.23381 10.7506 6.16677 10.998 6.15135 11.2512C6.13592 11.5043 6.17243 11.758 6.25863 11.9965C6.34483 12.2351 6.4789 12.4535 6.6526 12.6383C6.82631 12.8231 7.03597 12.9705 7.26871 13.0713C7.50145 13.1721 7.75236 13.2243 8.006 13.2246C8.50655 13.2337 8.99066 13.0459 9.35421 12.7017C9.71775 12.3575 9.93169 11.8844 9.95 11.3841L9.968 2.9862H11.6906C11.7693 3.73451 12.1085 4.43135 12.6489 4.95486C13.1894 5.47837 13.8967 5.79522 14.6471 5.85V7.8525Z" fill="#F9F9F9"/>
</svg>
